<?xml version="1.0" encoding="utf-8"?>
<!-- Generator: Adobe Illustrator 19.2.1, SVG Export Plug-In . SVG Version: 6.00 Build 0)  -->
<svg version="1.1" id="Layer_1" xmlns="http://www.w3.org/2000/svg" xmlns:xlink="http://www.w3.org/1999/xlink" x="0px" y="0px"
	 viewBox="0 0 312 360" style="enable-background:new 0 0 312 360;" xml:space="preserve">
<style type="text/css">
	.st0{fill:#FFFFFF;}
</style>
<g>
	<path class="st0" d="M311.5,89.6l-155-89.5c-0.3-0.2-0.7-0.2-1,0L0.5,89.6C0.2,89.8,0,90.1,0,90.5v179c0,0.4,0.2,0.7,0.5,0.9
		l155,89.5c0.2,0.1,0.3,0.1,0.5,0.1s0.3,0,0.5-0.1l155-89.5c0.3-0.2,0.5-0.5,0.5-0.9v-179C312,90.1,311.8,89.8,311.5,89.6z
		 M310,268.9l-154,88.9L2,268.9V91.1L156,2.2l154,88.9V268.9z"/>
	<path class="st0" d="M155.5,11.7L15.7,92.4c-0.4,0.2-0.6,0.7-0.5,1.1s0.5,0.7,1,0.7h279.7c0.5,0,0.8-0.3,1-0.7s-0.1-0.9-0.5-1.1
		L156.5,11.7C156.2,11.5,155.8,11.5,155.5,11.7z M292.1,92.3H19.9L156,13.7L292.1,92.3z"/>
	<path class="st0" d="M10,138.8v124.9c0,0.4,0.2,0.7,0.5,0.9l145,83.7c0.2,0.1,0.3,0.1,0.5,0.1s0.3,0,0.5-0.1l145-83.7
		c0.3-0.2,0.5-0.5,0.5-0.9V138.8c0-0.6-0.4-1-1-1H11C10.4,137.8,10,138.2,10,138.8z M72.4,298l17.3,0l0,8c0,0.6,0.1,1.4,0.4,2.2
		L72.4,298z M114.1,322.1c0.9-0.4,1.9-0.8,2.9-1c4.1-0.9,6.8-4.1,6.8-8.1v-10.4h5.6l0,15.5c-0.2,0.6-0.8,1.8-2.6,2.2
		c-3.1,0.8-6,2.3-8.5,4.3L114.1,322.1z M241,297.2H120.5l-6.9-0.3l7,1.1l119,0l-35.4,20.4c0-0.2,0-0.5,0-0.7v-11.9h-2v11.9
		c0,0.7,0.1,1.2,0.1,1.8L156,346.3l-31.1-17.9c1.3-0.8,2.7-1.4,4.2-1.8c3.8-0.9,6.7-3.7,7.4-7.5c0-0.2,0.1-0.4,0.1-0.6v-12.6h-2
		v12.6c0,0.1,0,0.2,0,0.2c-0.6,2.9-2.9,5.2-5.9,5.9c-1,0.3-2,0.6-2.9,1s-1.8,0.9-2.7,1.5c0,0-0.1,0.1-0.1,0.1l-2.8-1.6
		c2.1-1.6,4.5-2.8,7.1-3.4c2.5-0.6,3.8-2.4,4.1-3.9l0-17.8h-9.6v12.4c0,3.1-2,5.4-5.2,6.2c-1.6,0.4-3.1,1-4.5,1.8l-16.6-9.6
		c-0.1-1.3-1.5-1.9-1.5-1.9c-0.2-0.1-0.5-0.2-0.7-0.4c-0.8-0.5-1.6-1.4-1.6-3l0-10l-22.8,0l-4.3-2.5h26.8l0,0c0,0,0.1,0,0.2,0
		c0,0,0,0,0,0c0.1,0,0.1,0,0.2,0c0,0,0,0,0,0c0,0,0,0,0,0c0,0,0,0,0.1,0l0.1,0l0.2,0l28.4,1.2l0.8,0h124L241,297.2z M248.8,292.7
		H121.3l-0.7,0l-0.5,0L248.8,292.7L248.8,292.7z M12,139.8h288v123.3l-33.1,19.1c-2.3-0.8-4.6-1.6-7-2.5
		c-23.3-8.8-43.6-23.3-57-40.8c-5.3-6.9-9.3-14-12-21c-0.3-0.9-0.6-1.7-0.9-2.5l-1.2,0c-0.8,0.1-1.5,0.8-1.5,1.6c0,0.1,0,0.2,0,0.2
		l0.2,0.5c9.5,26.8,36.8,51.6,71.2,64.6c1,0.4,2.2,0.8,3.4,1.1c0.6,0.2,1.1,0.4,1.6,0.5l-6.9,4c-0.5,0-1.1,0-1.6,0c0,0-0.1,0-0.1,0
		c-0.1,0-0.1,0-0.2,0c-0.5,0-1,0-1.5,0c0,0,0,0,0,0c-0.5,0-1,0-1.5,0c-0.1,0-0.2,0-0.3,0c-0.5,0-0.9,0-1.4-0.1c-0.1,0-0.1,0-0.2,0
		c-0.4,0-0.8,0-1.2-0.1c-0.1,0-0.2,0-0.3,0c-0.4,0-0.9-0.1-1.3-0.1c-0.1,0-0.1,0-0.2,0c-0.4,0-0.7-0.1-1.1-0.1c-0.1,0-0.2,0-0.3,0
		c-0.4,0-0.8-0.1-1.1-0.1c-0.1,0-0.1,0-0.2,0c-0.3,0-0.6-0.1-0.9-0.1c-0.1,0-0.1,0-0.2,0c-0.3,0-0.6-0.1-0.9-0.1c-0.1,0-0.1,0-0.2,0
		c-0.2,0-0.5-0.1-0.7-0.1c-0.1,0-0.1,0-0.2,0c-0.3,0-0.5-0.1-0.7-0.1c-0.1,0-0.1,0-0.2,0c-0.2,0-0.4-0.1-0.5-0.1c0,0-0.1,0-0.1,0
		c-0.2,0-0.3-0.1-0.5-0.1c0,0-0.1,0-0.1,0c-0.1,0-0.2,0-0.3-0.1c0,0,0,0,0,0c-0.1,0-0.2,0-0.2,0c0,0,0,0-0.1,0c0,0,0,0-0.1,0
		c0,0,0,0,0,0c-8.4-1.5-17.1-4-24.5-7c-21.8-8.8-40.8-23.3-53.4-40.8c-5-6.9-8.7-14-11.2-21c-0.3-0.9-0.6-1.7-0.8-2.5l-1.1,0
		c-0.7,0.1-1.3,0.8-1.3,1.6c0,0.1,0,0.2,0,0.3l0.2,0.5c2.6,8,6.8,15.8,12.3,23.4c0.1,0.1,0.3,0.3,0.3,0.5
		c12.8,17.4,32,31.8,53.9,40.7c1.6,0.7,3.3,1.3,5,1.9c1.1,0.5,6.7,2.9,15.2,3.9l0.1,0l23.5,0l-4.3,2.5H59.7l-4.3-2.5h0.7v-8.8h-2.4
		v7.8L40,279.3c0.7-0.7,1.5-1.7,2.5-2.9c0.5-0.7,1.1-1.5,1.7-2.4c0.9-1.3,1.9-2.9,2.8-4.6c0.3-0.6,0.6-1.2,0.9-1.8
		c0.6-1.3,1.3-2.6,1.9-4c0.6-1.4,1.2-3,1.7-4.6c0-0.1,0-0.2,0-0.3c0-0.3-0.2-0.6-0.5-0.7l0,0c-0.1,0-0.2,0-0.2,0c0,0,0,0,0,0
		c0,0-0.1,0-0.1,0c-0.1,0-0.1,0-0.2,0c0,0-0.1,0-0.1,0c-0.1,0-0.1,0.1-0.1,0.1c0,0,0,0-0.1,0.1c-0.1,0.1-0.1,0.1-0.1,0.2l0,0
		c-0.8,2.4-1.7,4.6-2.6,6.5c-0.3,0.7-0.6,1.3-0.9,1.9c-0.6,1.2-1.2,2.3-1.8,3.4c-2.4,4.1-4.7,6.8-6.1,8.2L12,263.1V139.8z"/>
	<polygon class="st0" points="70.5,111.9 80.6,128.4 87.3,128.4 87.3,105.2 82.2,105.2 82.2,121.3 82.1,121.3 72.3,105.2 
		65.3,105.2 65.3,128.4 70.4,128.4 70.4,111.9 	"/>
	<path class="st0" d="M98.2,128.1c1.5,0.6,3.2,0.9,5,0.9c1.8,0,3.5-0.3,5-0.9c1.5-0.6,2.8-1.4,4-2.4c1.1-1.1,2-2.3,2.6-3.8
		s0.9-3.2,0.9-5c0-1.9-0.3-3.5-0.9-5c-0.6-1.5-1.5-2.8-2.6-3.8c-1.1-1.1-2.4-1.9-4-2.4c-1.5-0.6-3.2-0.8-5-0.8c-1.8,0-3.5,0.3-5,0.8
		c-1.5,0.6-2.8,1.4-4,2.4c-1.1,1.1-2,2.3-2.6,3.8c-0.6,1.5-0.9,3.2-0.9,5c0,1.9,0.3,3.5,0.9,5s1.5,2.8,2.6,3.8
		C95.4,126.7,96.7,127.6,98.2,128.1z"/>
	<path class="st0" d="M136.6,125.4c1.2-1,2.2-2.2,2.9-3.6c0.7-1.4,1.1-3.1,1.1-5c0-2.1-0.4-3.9-1.1-5.4c-0.7-1.5-1.7-2.7-3-3.6
		c-1.2-0.9-2.7-1.6-4.4-2c-1.7-0.4-3.4-0.6-5.3-0.6h-7.7v23.2h8.3c1.7,0,3.4-0.3,4.9-0.8C134,127.1,135.4,126.4,136.6,125.4z"/>
	<polygon class="st0" points="159.9,109.9 159.9,105.2 144.2,105.2 144.2,128.4 160.5,128.4 160.5,123.7 149.3,123.7 149.3,119 
		159.4,119 159.4,114.3 149.3,114.3 149.3,109.9 	"/>
	<path class="st0" d="M170.6,111.5c0.6-0.7,1.3-1.2,2.1-1.6c0.8-0.4,1.7-0.6,2.7-0.6s1.8,0.2,2.5,0.5c0.7,0.3,1.3,0.8,1.8,1.4
		l3.9-3.2c-0.5-0.6-1.1-1.2-1.7-1.6c-0.6-0.4-1.3-0.8-2-1c-0.7-0.3-1.4-0.5-2.1-0.6c-0.7-0.1-1.4-0.2-2-0.2c-1.8,0-3.5,0.3-5,0.8
		c-1.5,0.6-2.8,1.4-4,2.4c-1.1,1.1-2,2.3-2.6,3.8c-0.6,1.5-0.9,3.2-0.9,5c0,1.9,0.3,3.5,0.9,5s1.5,2.8,2.6,3.8
		c1.1,1.1,2.4,1.9,4,2.4c1.5,0.6,3.2,0.9,5,0.9c1.6,0,3.1-0.3,4.6-1c1.5-0.7,2.7-1.7,3.7-3l-4.3-3.2c-0.5,0.8-1.2,1.4-2,1.8
		c-0.8,0.4-1.7,0.7-2.8,0.7c-0.9,0-1.8-0.2-2.6-0.6c-0.8-0.4-1.5-0.9-2.1-1.6c-0.6-0.7-1.1-1.4-1.4-2.4c-0.3-0.9-0.5-1.9-0.5-3
		c0-1.1,0.2-2.1,0.5-3C169.5,112.9,170,112.1,170.6,111.5z"/>
	<path class="st0" d="M190.3,123.7c0.9,0.4,1.9,0.6,3,0.6c1.1,0,2.1-0.2,3-0.6c0.9-0.4,1.6-0.9,2.3-1.6c0.6-0.7,1.1-1.4,1.5-2.4
		c0.3-0.9,0.5-1.9,0.5-3c0-1.1-0.2-2.1-0.5-3c-0.3-0.9-0.8-1.7-1.5-2.4c-0.6-0.7-1.4-1.2-2.3-1.6c-0.9-0.4-1.9-0.6-3-0.6
		c-1.1,0-2.1,0.2-3,0.6c-0.9,0.4-1.6,0.9-2.3,1.6c-0.6,0.7-1.1,1.5-1.5,2.4c-0.3,0.9-0.5,1.9-0.5,3c0,1.1,0.2,2.1,0.5,3
		c0.3,0.9,0.8,1.7,1.5,2.4C188.7,122.8,189.5,123.3,190.3,123.7z"/>
	<polygon class="st0" points="209.4,111.9 219.6,128.4 226.2,128.4 226.2,105.2 221.1,105.2 221.1,121.3 221.1,121.3 211.2,105.2 
		204.3,105.2 204.3,128.4 209.4,128.4 209.4,111.9 	"/>
	<polygon class="st0" points="246.7,109.9 246.7,105.2 231.1,105.2 231.1,128.4 236.2,128.4 236.2,119.4 245.9,119.4 245.9,114.7 
		236.2,114.7 236.2,109.9 	"/>
	<path class="st0" d="M78.8,167.1c0.6-0.1,1.2-0.4,1.7-0.7s0.9-0.7,1.2-1.2s0.4-1.1,0.4-1.9c0-0.9-0.3-1.7-0.8-2.2
		c-0.6-0.6-1.3-0.9-2.1-1v0c0.7-0.2,1.3-0.6,1.7-1.1c0.4-0.5,0.7-1.1,0.7-1.9c0-0.6-0.1-1.2-0.4-1.6s-0.6-0.8-1-1.1
		c-0.4-0.3-0.8-0.5-1.3-0.6c-0.5-0.1-1-0.2-1.5-0.2h-5.4v13.7h5C77.5,167.3,78.1,167.2,78.8,167.1z M74.4,155.5h2
		c0.9,0,1.6,0.1,2.1,0.4c0.4,0.3,0.7,0.7,0.7,1.3c0,0.6-0.2,1.1-0.6,1.4c-0.4,0.3-1,0.5-1.9,0.5h-2.2V155.5z M74.4,165.2v-4h2.3
		c1,0,1.7,0.1,2.2,0.4c0.5,0.3,0.7,0.8,0.7,1.5c0,0.5-0.1,0.8-0.3,1.1c-0.2,0.3-0.5,0.5-0.8,0.6c-0.3,0.1-0.6,0.2-1,0.3
		s-0.7,0.1-1,0.1H74.4z"/>
	<path class="st0" d="M85.9,166.2c0.5,0.5,1.1,0.8,1.8,1.1s1.4,0.4,2.2,0.4c0.8,0,1.5-0.1,2.2-0.4s1.3-0.6,1.7-1.1
		c0.5-0.5,0.9-1,1.2-1.7c0.3-0.7,0.4-1.4,0.4-2.2v-8.7H93v8.6c0,0.4-0.1,0.8-0.2,1.2c-0.1,0.4-0.3,0.7-0.5,1.1
		c-0.2,0.3-0.6,0.6-1,0.8c-0.4,0.2-0.9,0.3-1.5,0.3c-0.6,0-1.1-0.1-1.5-0.3c-0.4-0.2-0.7-0.4-1-0.8c-0.2-0.3-0.4-0.7-0.5-1.1
		c-0.1-0.4-0.2-0.8-0.2-1.2v-8.6h-2.4v8.7c0,0.8,0.1,1.6,0.4,2.2C85,165.1,85.4,165.7,85.9,166.2z"/>
	<path class="st0" d="M105.9,166.9c0.9-0.3,1.7-0.7,2.4-1.2c0.7-0.6,1.3-1.3,1.8-2.1c0.5-0.9,0.7-1.9,0.7-3.1c0-1.3-0.2-2.4-0.7-3.3
		s-1-1.6-1.8-2.1c-0.7-0.5-1.5-0.9-2.4-1.2c-0.9-0.2-1.8-0.3-2.7-0.3h-4.9v13.7h4.9C104.1,167.3,105,167.1,105.9,166.9z
		 M100.8,165.1v-9.5h2c0.6,0,1.3,0.1,1.9,0.2c0.6,0.1,1.2,0.4,1.7,0.7c0.5,0.3,0.9,0.8,1.3,1.5c0.3,0.6,0.5,1.4,0.5,2.4
		c0,0.9-0.2,1.7-0.5,2.3c-0.3,0.6-0.7,1.1-1.3,1.4c-0.5,0.4-1.1,0.6-1.7,0.8c-0.6,0.1-1.3,0.2-1.9,0.2H100.8z"/>
	<path class="st0" d="M115,164.1h6l1.3,3.1h2.8l-5.9-13.7H117l-6,13.7h2.7L115,164.1z M118,156.4l2.1,5.6h-4.3L118,156.4z"/>
	<path class="st0" d="M128.8,161.6h1.9c0.7,0,1.4-0.1,2.1-0.2c0.6-0.1,1.2-0.4,1.7-0.7c0.5-0.3,0.9-0.7,1.2-1.3
		c0.3-0.5,0.4-1.2,0.4-1.9c0-0.7-0.1-1.3-0.4-1.8s-0.6-0.9-1-1.2c-0.5-0.3-1-0.6-1.6-0.7c-0.6-0.1-1.3-0.2-2.1-0.2h-4.5v13.7h2.4
		V161.6z M128.8,155.6h1.8c0.4,0,0.7,0,1.1,0.1c0.4,0,0.7,0.1,1,0.3c0.3,0.1,0.5,0.3,0.7,0.6s0.3,0.6,0.3,1c0,0.4-0.1,0.8-0.3,1
		c-0.2,0.3-0.4,0.5-0.7,0.6c-0.3,0.1-0.6,0.3-1,0.3s-0.7,0.1-1.1,0.1h-1.7V155.6z"/>
	<polygon class="st0" points="147.7,165.1 140.7,165.1 140.7,161.2 147,161.2 147,159.2 140.7,159.2 140.7,155.7 147.4,155.7 
		147.4,153.5 138.2,153.5 138.2,167.3 147.7,167.3 	"/>
	<path class="st0" d="M155.5,165.1c-0.2,0.2-0.5,0.3-0.8,0.4c-0.3,0.1-0.6,0.1-0.9,0.1c-0.5,0-1.1-0.1-1.7-0.4
		c-0.6-0.3-1-0.6-1.3-1.1l-1.7,1.6c0.5,0.6,1.2,1.1,2.1,1.5c0.9,0.3,1.7,0.5,2.6,0.5c0.7,0,1.3-0.1,1.9-0.3c0.6-0.2,1.1-0.5,1.6-0.8
		s0.8-0.8,1.1-1.4s0.4-1.2,0.4-1.9c0-0.7-0.1-1.2-0.4-1.7c-0.3-0.5-0.6-0.8-1-1.1c-0.4-0.3-0.8-0.5-1.3-0.7s-0.9-0.3-1.4-0.5
		c-0.4-0.1-0.7-0.2-1.1-0.3c-0.3-0.1-0.6-0.3-0.8-0.4s-0.4-0.3-0.5-0.6c-0.1-0.2-0.2-0.5-0.2-0.8c0-0.3,0.1-0.6,0.2-0.9
		c0.1-0.2,0.3-0.4,0.6-0.6c0.2-0.1,0.5-0.3,0.8-0.3c0.3-0.1,0.6-0.1,0.9-0.1c0.5,0,1,0.1,1.4,0.3c0.5,0.2,0.8,0.5,1.1,0.8l1.6-1.7
		c-0.5-0.5-1.2-0.9-1.9-1.1c-0.7-0.2-1.4-0.4-2.1-0.4c-0.6,0-1.2,0.1-1.8,0.2c-0.6,0.2-1.1,0.4-1.6,0.7s-0.9,0.7-1.1,1.3
		c-0.3,0.5-0.4,1.1-0.4,1.8c0,0.6,0.1,1.2,0.3,1.6c0.2,0.4,0.5,0.8,0.8,1.1c0.3,0.3,0.7,0.5,1.1,0.7c0.4,0.2,0.8,0.3,1.2,0.5
		c0.4,0.1,0.8,0.3,1.2,0.4c0.4,0.1,0.7,0.3,1,0.5c0.3,0.2,0.5,0.4,0.7,0.6c0.2,0.2,0.3,0.5,0.3,0.9c0,0.4-0.1,0.7-0.2,0.9
		S155.7,164.9,155.5,165.1z"/>
	<polygon class="st0" points="163.7,167.3 166.1,167.3 166.1,155.7 170.4,155.7 170.4,153.5 159.5,153.5 159.5,155.7 163.7,155.7 	
		"/>
	<path class="st0" d="M177.3,162.8c0.3,0.3,0.7,0.6,1.1,0.7c0.4,0.2,0.9,0.3,1.3,0.3c0.5,0,0.9-0.1,1.3-0.3c0.4-0.2,0.8-0.4,1.1-0.7
		c0.3-0.3,0.6-0.7,0.7-1.1c0.2-0.4,0.3-0.9,0.3-1.3c0-0.5-0.1-0.9-0.3-1.3c-0.2-0.4-0.4-0.8-0.7-1.1s-0.7-0.6-1.1-0.7
		c-0.4-0.2-0.9-0.3-1.3-0.3c-0.5,0-0.9,0.1-1.3,0.3c-0.4,0.2-0.8,0.4-1.1,0.7s-0.6,0.7-0.7,1.1c-0.2,0.4-0.3,0.9-0.3,1.3
		c0,0.5,0.1,0.9,0.3,1.3C176.7,162.2,176.9,162.5,177.3,162.8z"/>
	<path class="st0" d="M193.6,155.8c0.4-0.4,0.9-0.7,1.6-0.7c0.6,0,1.1,0.2,1.6,0.6c0.4,0.4,0.6,0.9,0.6,1.5c0,0.5-0.1,1-0.4,1.4
		c-0.3,0.4-0.6,0.8-1,1.3l-5.3,5.2v2.1h9.1v-2.1h-6.2l4-3.8c0.3-0.3,0.6-0.6,0.9-0.9c0.3-0.3,0.5-0.6,0.7-1c0.2-0.3,0.4-0.7,0.5-1.1
		c0.1-0.4,0.2-0.8,0.2-1.2c0-0.7-0.1-1.2-0.4-1.7c-0.3-0.5-0.6-0.9-1-1.3c-0.4-0.3-0.9-0.6-1.5-0.8c-0.6-0.2-1.1-0.3-1.7-0.3
		c-0.6,0-1.2,0.1-1.8,0.3s-1,0.5-1.4,0.8c-0.4,0.3-0.7,0.8-1,1.2c-0.3,0.5-0.4,1-0.5,1.6l2.3,0.3C193,156.8,193.2,156.2,193.6,155.8
		z"/>
	<path class="st0" d="M203.6,165.7c0.4,0.6,0.9,1.1,1.5,1.4c0.6,0.3,1.3,0.5,2.1,0.5s1.5-0.2,2.1-0.5s1.1-0.8,1.5-1.4
		c0.4-0.6,0.7-1.4,0.9-2.3s0.3-1.9,0.3-3c0-1.1-0.1-2.1-0.3-3s-0.5-1.7-0.9-2.3c-0.4-0.6-0.9-1.1-1.5-1.4s-1.3-0.5-2.1-0.5
		s-1.5,0.2-2.1,0.5c-0.6,0.3-1.1,0.8-1.5,1.4s-0.7,1.4-0.9,2.3c-0.2,0.9-0.3,1.9-0.3,3c0,1.1,0.1,2.1,0.3,3
		C202.8,164.3,203.1,165.1,203.6,165.7z M204.8,158.8c0.1-0.6,0.2-1.2,0.4-1.7c0.2-0.5,0.4-1,0.7-1.4c0.3-0.4,0.8-0.6,1.3-0.6
		c0.5,0,0.9,0.2,1.3,0.6c0.3,0.4,0.6,0.8,0.7,1.4c0.2,0.5,0.3,1.1,0.3,1.7c0.1,0.6,0.1,1.2,0.1,1.6c0,0.5,0,1-0.1,1.6
		c-0.1,0.6-0.2,1.2-0.3,1.7c-0.2,0.5-0.4,1-0.7,1.3c-0.3,0.4-0.7,0.6-1.3,0.6c-0.5,0-1-0.2-1.3-0.6c-0.3-0.4-0.6-0.8-0.7-1.3
		c-0.2-0.5-0.3-1.1-0.4-1.7c-0.1-0.6-0.1-1.2-0.1-1.6C204.7,159.9,204.7,159.4,204.8,158.8z"/>
	<polygon class="st0" points="218.5,156.4 218.5,167.3 220.8,167.3 220.8,153.5 218.7,153.5 214.4,157 215.8,158.6 	"/>
	<path class="st0" d="M227.2,166.3c0.5,0.4,1,0.8,1.6,1s1.3,0.4,2,0.4c0.7,0,1.4-0.1,2-0.3c0.6-0.2,1.1-0.6,1.6-1
		c0.4-0.4,0.8-0.9,1.1-1.5c0.3-0.6,0.4-1.3,0.4-2c0-0.6-0.1-1.2-0.3-1.7s-0.5-1-0.9-1.4c-0.4-0.4-0.9-0.7-1.4-0.9
		c-0.5-0.2-1.1-0.3-1.7-0.3c-0.2,0-0.5,0-0.8,0.1c-0.3,0-0.5,0.1-0.7,0.2l0,0l3.5-5.1h-2.8l-3.4,5.3c-0.2,0.3-0.4,0.7-0.6,1
		c-0.2,0.3-0.3,0.6-0.4,1c-0.1,0.3-0.2,0.6-0.3,1c-0.1,0.3-0.1,0.7-0.1,1.1c0,0.7,0.1,1.3,0.4,1.9
		C226.4,165.3,226.8,165.8,227.2,166.3z M228.4,161.9c0.1-0.3,0.3-0.6,0.6-0.9c0.2-0.2,0.5-0.4,0.9-0.6s0.7-0.2,1.1-0.2
		c0.4,0,0.7,0.1,1.1,0.2c0.3,0.1,0.6,0.3,0.8,0.6c0.2,0.2,0.4,0.5,0.5,0.8c0.1,0.3,0.2,0.7,0.2,1.1c0,0.8-0.2,1.5-0.7,2
		c-0.5,0.5-1.1,0.7-1.9,0.7c-0.4,0-0.8-0.1-1.1-0.2s-0.6-0.3-0.8-0.6c-0.2-0.2-0.4-0.5-0.5-0.9c-0.1-0.3-0.2-0.7-0.2-1
		C228.2,162.6,228.2,162.2,228.4,161.9z"/>
	<path class="st0" d="M134.8,204.9h68.4l2.7-5.6h-74.3L134.8,204.9z M193.7,200.8h6.2v2.3h-6.2V200.8z M185.6,200.8h6.2v2.3h-6.2
		V200.8z M177.5,200.8h6.2v2.3h-6.2V200.8z M169.4,200.8h6.2v2.3h-6.2V200.8z M161.4,200.8h6.2v2.3h-6.2V200.8z M153.3,200.8h6.2
		v2.3h-6.2V200.8z M145.2,200.8h6.2v2.3h-6.2V200.8z M137.1,200.8h6.2v2.3h-6.2V200.8z M135.1,201.3L135.1,201.3L135.1,201.3
		L135.1,201.3z"/>
	<rect x="181.6" y="305.8" class="st0" width="14.7" height="4"/>
	<rect x="144.4" y="300.5" class="st0" width="6.6" height="3.8"/>
	<rect x="140.3" y="305.8" class="st0" width="14.7" height="4"/>
	<rect x="152.5" y="300.5" class="st0" width="15.5" height="3.8"/>
	<rect x="156.5" y="305.8" class="st0" width="6.6" height="4"/>
	<rect x="164.6" y="305.8" class="st0" width="15.5" height="4"/>
	<rect x="134.8" y="300.5" class="st0" width="8.1" height="3.8"/>
	<rect x="177.6" y="300.5" class="st0" width="6.6" height="3.8"/>
	<rect x="169.5" y="300.5" class="st0" width="6.6" height="3.8"/>
	<rect x="185.6" y="300.5" class="st0" width="6.6" height="3.8"/>
	<rect x="193.7" y="300.5" class="st0" width="10.5" height="3.8"/>
	<rect x="133.9" y="285" class="st0" width="6.5" height="3.2"/>
	<path class="st0" d="M157.3,229l3.4,3.4c0.8-0.7,1.7-1.3,2.6-1.8l-1.6-4C160.1,227.2,158.7,228,157.3,229z"/>
	<path class="st0" d="M181.6,257.6c0.9,0.8,1.9,1.6,3,2.4h1.9v-2.5h-4.8V257.6z"/>
	<path class="st0" d="M170.2,225.2v4c1.1,0.1,2.1,0.4,3.1,0.8l1.6-3.9C173.4,225.6,171.8,225.3,170.2,225.2z M172.2,227.5
		L172.2,227.5C172.2,227.5,172.2,227.5,172.2,227.5L172.2,227.5z"/>
	<rect x="133.9" y="280" class="st0" width="10.5" height="3.4"/>
	<path class="st0" d="M164.7,229.9c1.3-0.5,2.6-0.7,4-0.8v-4c-1.9,0-3.7,0.3-5.6,0.9L164.7,229.9z"/>
	<rect x="181.6" y="280" class="st0" width="11.4" height="3.4"/>
	<rect x="133.9" y="270.5" class="st0" width="22.6" height="2.1"/>
	<path class="st0" d="M197.8,184.7v7.2h5.6v-7.2H197.8z M201.4,189.9h-1.6v-3.2h1.6V189.9z"/>
	<rect x="198.5" y="285" class="st0" width="5.7" height="3.2"/>
	<rect x="118.7" y="194.4" class="st0" width="88.7" height="2.4"/>
	<rect x="151.7" y="257.4" class="st0" width="4.8" height="2.5"/>
	<path class="st0" d="M133.9,184.7v7.2h6.4v-7.2H133.9z M138.3,189.9h-2.4v-3.2h2.4V189.9z"/>
	<path class="st0" d="M123.9,184.7v7.2h7.4v-7.2H123.9z M129.3,189.9h-3.4v-3.2h3.4V189.9z"/>
	<path class="st0" d="M131.1,204.8l-3.1-5.5h-8.8l3.1,5.5H131.1z M127.1,201.3l0.9,1.6h-4.8l-0.9-1.6H127.1z"/>
	<path class="st0" d="M142.8,184.7v7.2h52.5v-7.2H142.8z M193.3,189.9h-48.5v-3.2h48.5V189.9z"/>
	<rect x="151.7" y="261.5" class="st0" width="4.8" height="2.5"/>
	<path class="st0" d="M204.2,272.5L204.2,272.5v-2h-3.7C201.6,271.1,202.8,271.8,204.2,272.5z"/>
	<rect x="181.6" y="275.1" class="st0" width="7.3" height="3.4"/>
	<path class="st0" d="M176.4,226.6l-1.7,4.1c0.9,0.5,1.8,1.1,2.5,1.9l3.5-3.5C179.4,228,177.9,227.2,176.4,226.6z"/>
	<rect x="190.4" y="285" class="st0" width="6.6" height="3.2"/>
	<rect x="181.6" y="285" class="st0" width="7.3" height="3.2"/>
	<path class="st0" d="M185.5,270.5h-3.9v2.1h7.1C187.6,271.9,186.5,271.2,185.5,270.5z"/>
	<path class="st0" d="M194.5,283.5h9.7v-2.2c-0.9-0.4-1.7-0.8-2.6-1.3h-7.2V283.5z"/>
	<path class="st0" d="M192.5,275c-0.2,0.1-0.3,0.1-0.5,0.1h-1.6v3.4h8.3C196.6,277.4,194.5,276.2,192.5,275z"/>
	<rect x="149.9" y="285" class="st0" width="6.5" height="3.2"/>
	<rect x="151.7" y="265.5" class="st0" width="4.8" height="2.5"/>
	<rect x="149.9" y="275.1" class="st0" width="6.5" height="3.4"/>
	<rect x="145.9" y="280" class="st0" width="10.6" height="3.4"/>
	<rect x="141.8" y="275.1" class="st0" width="6.6" height="3.4"/>
	<rect x="151.7" y="249.3" class="st0" width="4.8" height="2.5"/>
	<path class="st0" d="M202.6,247.5c-0.5-0.6-1.2-1-2.1-1.9V268h2.1V247.5z"/>
	<rect x="133.9" y="275.1" class="st0" width="6.5" height="3.4"/>
	<path class="st0" d="M156.5,242.8c0,0,0-0.1,0-0.2l0,0c-0.3-0.4-0.6-0.9-1-1.3h-3.8v2.5h4.8L156.5,242.8z"/>
	<rect x="151.7" y="245.3" class="st0" width="4.8" height="2.5"/>
	<path class="st0" d="M181.9,229.9l-3.6,3.6c0.7,0.9,1.3,1.8,1.9,2.8l5.1-2.1C184.4,232.7,183.3,231.2,181.9,229.9z"/>
	<rect x="181.6" y="249.3" class="st0" width="4.8" height="2.5"/>
	<rect x="181.6" y="245.3" class="st0" width="4.8" height="2.5"/>
	<path class="st0" d="M181.6,242.8v1h4.8v-2.5h-4.9C181.5,241.8,181.6,242.3,181.6,242.8z"/>
	<rect x="181.6" y="253.4" class="st0" width="4.8" height="2.5"/>
	<path class="st0" d="M180.7,237.8c0.2,0.6,0.4,1.3,0.6,2h5.1v-0.5c0-1.2-0.2-2.4-0.6-3.6L180.7,237.8z"/>
	<rect x="151.7" y="253.4" class="st0" width="4.8" height="2.5"/>
	<path class="st0" d="M152.1,236.1L152.1,236.1c-0.2,0.5-0.3,1-0.4,1.6s-0.1,1-0.1,1.6v0.5h2.8C153.6,238.5,152.9,237.3,152.1,236.1
		z"/>
	<rect x="141.8" y="285" class="st0" width="6.6" height="3.2"/>
	<path class="st0" d="M58.6,288.2h5.6v-8.8h-5.6V288.2z M60.6,281.4h1.6v4.8h-1.6V281.4z"/>
	<path class="st0" d="M116.6,247.1c-0.7,2.4-1.5,4.8-2.4,7c-0.9,2.3-1.8,4.5-2.7,6.6c-0.4,0.9-0.8,1.8-1.3,2.7
		c-0.9,1.8-1.8,3.5-2.7,5.1c-0.5,0.8-0.9,1.6-1.4,2.4c-1.5,2.3-3,4.5-4.6,6.4c-0.5,0.6-1.1,1.3-1.6,1.8c-0.5,0.5-0.9,1-1.4,1.4
		c-2.8,2.7-5.6,4.7-8.3,5.8c-0.5,0.2-0.9,0.4-1.4,0.5c-0.9,0.3-1.8,0.5-2.7,0.6c-0.3,0-0.6,0.1-0.9,0.1v0.8h4.3c0,0,0.1,0,0.1-0.1
		c3.7-1.3,7.5-4,11.2-8c0.5-0.5,1-1.1,1.5-1.7l0,0l4.3-5.9c0.4-0.6,0.8-1.2,1.1-1.8c0.7-1.2,1.5-2.5,2.2-3.8
		c0.7-1.3,1.4-2.7,2.1-4.1s1.3-2.9,1.9-4.4c0.9-2.3,1.8-4.6,2.7-7.1c1.1-3.3,2.1-6.7,3.1-10.3c0.5-1.8,0.9-3.6,1.3-5.5
		c0,0,0-0.1,0-0.1v-7.6v0c-0.1,0.8-0.3,1.6-0.4,2.5C119.6,236.3,118.3,241.9,116.6,247.1z"/>
	<rect x="56.7" y="238.4" class="st0" width="35.8" height="2.1"/>
	<path class="st0" d="M86.1,285.3c1.5-0.2,3.2-0.8,4.8-1.6l0-4.3h-4.8V285.3z M88.1,281.4h0.8l0,1c-0.3,0.1-0.5,0.2-0.8,0.3V281.4z"
		/>
	<rect x="89.2" y="233.7" class="st0" width="1.7" height="2.2"/>
	<rect x="63" y="233.7" class="st0" width="23.7" height="2.2"/>
	<rect x="58.6" y="233.7" class="st0" width="1.9" height="2.2"/>
	<polygon class="st0" points="92,243 57.3,243 58.2,245.4 91.2,245.4 	"/>
	<path class="st0" d="M62.2,249.2c0,0,0.1,0,0.1,0c0.1,0,0.1,0,0.2,0c0,0,0.1,0,0.1,0c0,0,0.1,0,0.1,0c0.1,0,0.3,0.1,0.4,0.1
		c0,0,0,0,0.1,0c0.1,0.1,0.2,0.2,0.3,0.3l0,0c0.5,0.7,0.6,1.5,0.6,1.7c0.2,1.7,0.2,2.5,0.5,4.1c0.2,1.4,0.4,2.8,0.7,4.2v0
		c1.9-2.9,5.6-4.7,9.8-4.7c6,0,11,3.8,11,8.6v13.4h4.8v-6.2c-1.8-4.1-3.3-8.5-5.1-14c-0.5-1.7-0.8-2.6-1.1-4.3
		c-0.1-0.4-0.2-0.6-0.2-0.6c-0.5-0.4-0.7-1.1-0.4-1.7c0.1-0.1,0.2-0.2,0.3-0.3c0,0,0.1,0,0.1-0.1c0.1-0.1,0.2-0.1,0.3-0.2
		c0,0,0,0,0.1,0c0.1,0,0.2-0.1,0.3-0.1c0,0,0,0,0.1,0c0,0,0.1,0,0.1,0c0.1,0,0.3,0,0.4,0.1l0,0c0.7,0.4,1.2,1.1,1.5,2.2
		c0.3,1.6,0.5,2.4,1.1,4.1c0.8,2.4,1.7,5.2,2.7,8v0v-16H58.6v29h5.6l0-11.6c-0.9-3-1.5-6.2-2-9.5c-0.2-1.6-0.3-2.5-0.5-4.2
		c0-0.1-0.1-0.3-0.1-0.4c-0.4-0.6-0.3-1.3,0.2-1.8C61.9,249.3,62.1,249.2,62.2,249.2z M88.1,269.2c0.3,0.6,0.5,1.3,0.8,1.9v3.8h-0.8
		V269.2z M82,249.9c-0.3,1.1,0,2.3,0.8,3.1c0.2,0.9,0.4,1.6,0.6,2.4c-2.2-1.5-5.1-2.4-8.2-2.4c-3.2,0-6.1,0.9-8.5,2.5
		c0-0.1,0-0.3-0.1-0.4c-0.2-1.6-0.3-2.3-0.5-4c0-0.2-0.1-0.7-0.3-1.3H82z M62.2,265.5l0,9.4h-1.6v-16.4
		C61,260.9,61.5,263.3,62.2,265.5z"/>
	<path class="st0" d="M210.7,277.5c0.2,0,0.4-0.2,0.5-0.4c0,0,0-0.1,0-0.1v-0.9V256v-1.3v-0.6c0-0.3-0.2-0.5-0.5-0.5
		c-0.1,0-0.2,0-0.3,0.1c-0.1,0.1-0.1,0.2-0.2,0.3c0,0,0,0.1,0,0.1v1v20.6v1.1v0.2C210.2,277.2,210.4,277.5,210.7,277.5z"/>
	<path class="st0" d="M222.8,281.9c0.2,0,0.3-0.1,0.4-0.3c0-0.1,0.1-0.2,0.1-0.2v-0.8V266v-1.4v-0.2c0-0.3-0.2-0.5-0.5-0.5
		c-0.1,0-0.2,0-0.3,0.1c-0.1,0-0.1,0.1-0.2,0.2c0,0.1-0.1,0.2-0.1,0.2v0.9v15.1v1v0.1C222.3,281.7,222.6,281.9,222.8,281.9z"/>
	<path class="st0" d="M237.4,285.9c0.2,0,0.4-0.1,0.4-0.3c0-0.1,0-0.1,0-0.2c0,0,0,0,0,0v-1.2v-9v-0.9v-0.3c0-0.3-0.2-0.5-0.5-0.5
		c-0.1,0-0.2,0-0.2,0.1s-0.1,0.1-0.2,0.2c0,0.1-0.1,0.2-0.1,0.3v0.6v9.4v1.2v0.1C236.9,285.7,237.1,285.9,237.4,285.9z"/>
	<rect x="53.7" y="233.7" class="st0" width="2.4" height="2.2"/>
	<rect x="51.4" y="238.4" class="st0" width="2.8" height="2.1"/>
	<rect x="53.7" y="247.9" class="st0" width="2.4" height="29"/>
	<polygon class="st0" points="54.6,243 52.1,243 53.3,245.4 55.5,245.4 	"/>
	<path class="st0" d="M123.3,268h9.6v-60.6h-9.6V268z M125.3,209.4h5.6V266h-5.6V209.4z"/>
	<path class="st0" d="M79.8,284.2c1.3,0.6,2.5,1,3.8,1.1v-6h-3.8V284.2z"/>
	<path class="st0" d="M75.1,257.5c-1.4,0-2.9,0.3-4.2,0.8c0.2,0,0.4,0,0.6,0c4.7,0,8.2,2.9,8.2,6.7v11.9h3.8v-13.4
		C83.6,260.2,79.8,257.5,75.1,257.5z"/>
	<path class="st0" d="M66.8,265.5C66.8,265.5,66.8,265.5,66.8,265.5c0-0.1-0.1-0.2-0.1-0.2c0,0,0,0-0.1-0.1c0,0-0.1-0.1-0.1-0.1
		c0,0-0.1,0-0.1,0c-0.1,0-0.1,0-0.2,0c0,0-0.1,0-0.1,0c0,0,0,0,0,0c-0.1,0-0.2,0-0.2,0c-0.4,0.1-0.6,0.6-0.5,1
		c4.5,13.1,11,19.8,12.9,21.5c0.1,0.1,0.3,0.2,0.5,0.2c0.2,0,0.4-0.1,0.6-0.2c0.3-0.3,0.3-0.8,0-1.1
		C77.5,284.7,71.2,278.3,66.8,265.5z"/>
	<path class="st0" d="M121.7,288.2h9.6v-17.7h-9.6V288.2z M123.7,272.5h5.6v13.7h-5.6V272.5z"/>
	<polygon class="st0" points="135.5,268 149.8,268 149.8,266 137.5,266 137.5,209.4 200.6,209.4 200.6,230.4 202.6,233.4 
		202.6,207.4 135.5,207.4 	"/>
</g>
</svg>
