<?xml version="1.0" encoding="utf-8"?>
<!-- Generator: Adobe Illustrator 19.2.1, SVG Export Plug-In . SVG Version: 6.00 Build 0)  -->
<svg version="1.1" id="Layer_1" xmlns="http://www.w3.org/2000/svg" xmlns:xlink="http://www.w3.org/1999/xlink" x="0px" y="0px"
	 viewBox="0 0 310 358" style="enable-background:new 0 0 310 358;" xml:space="preserve">
<style type="text/css">
	.st0{fill:#191A23;}
	.st1{fill:#FFFFFF;}
	.st2{fill:#27AAE1;}
</style>
<g>
	<g>
		<rect x="144.2" y="199.8" class="st0" width="6.2" height="2.3"/>
		<rect x="184.6" y="199.8" class="st0" width="6.2" height="2.3"/>
		<path class="st0" d="M119.5,293.7l-28.4-1.2l-0.2,0l-0.1,0c-0.1,0-0.1,0-0.1,0c-0.1,0-0.3,0-0.3,0H61.6l4.3,2.5l24.8,0l0,10
			c0,2.9,2.5,3.5,3.3,3.7c3.1,0.8,5.4,3.1,6.1,6.1l2.8,1.6c0,0,0,0,0-0.1c-0.3-4.8-3.6-8.8-8.3-10l-0.1,0c-1.3-0.3-1.3-0.6-1.3-1.2
			v-9.6l25.8,4.1v12.5c0,1.9-1.2,3.3-3.3,3.7c-2.8,0.7-5.4,2-7.6,3.7l2.4,1.4c1.7-1.2,3.7-2.1,5.8-2.7c3.2-0.7,5.2-3.1,5.2-6.2
			v-12.4h9.6l0,17.8c-0.3,1.5-1.6,3.3-4.1,3.9c-3.1,0.8-5.9,2.3-8.3,4.3l2.3,1.3c1.9-1.5,4.2-2.7,6.6-3.3c3.1-0.7,5.3-3,5.9-5.9
			c0-0.1,0-0.2,0-0.2v-12.6h4.1v4.5c0,0,0,0.1,0,0.1c0,0,0,0.1,0,0.1c0,0.4,0.3,0.8,0.8,0.8h11.4v4.7c0,0.4,0.3,0.8,0.8,0.8
			s0.8-0.3,0.8-0.8v-4.7h15.5v4h-11c-0.4,0-0.8,0.3-0.8,0.8s0.3,0.8,0.8,0.8h24.3c0.4,0,0.8-0.3,0.8-0.8s-0.3-0.8-0.8-0.8h-11.8v-4
			H183v4.7c0,0.4,0.3,0.8,0.8,0.8s0.8-0.3,0.8-0.8v-4.7h11.4c0.4,0,0.8-0.3,0.8-0.8c0,0,0-0.1,0-0.1c0,0,0-0.1,0-0.1v-4.5h6.5v11.9
			c0,0.6,0,1.2,0.1,1.8l2.4-1.4c0-0.1,0-0.3,0-0.4v-17.2h30.6l4.3-2.5l-121,0l-7-1.1l6.9,0.3H242l4.3-2.5h-126L119.5,293.7z
			 M153.9,308.8h-14.7v-4h14.7V308.8z M162,308.8h-6.6v-4h6.6V308.8z M179,308.8h-15.5v-4H179V308.8z M195.2,308.8h-14.7v-4h14.7
			V308.8z M196.4,309.3L196.4,309.3L196.4,309.3L196.4,309.3z M192.6,299.5h10.5v3.8h-10.5V299.5z M184.5,299.5h6.6v3.8h-6.6V299.5z
			 M176.5,299.5h6.6v3.8h-6.6V299.5z M168.4,299.5h6.6v3.8h-6.6V299.5z M151.4,299.5h15.5v3.8h-15.5V299.5z M143.3,299.5h6.6v3.8
			h-6.6V299.5z M133.7,299.5h8.1v3.8h-8.1V299.5z"/>
		<rect x="176.5" y="199.8" class="st0" width="6.2" height="2.3"/>
		<rect x="168.4" y="199.8" class="st0" width="6.2" height="2.3"/>
		<path class="st0" d="M204.1,236.7v-31l3.6-7.4h0c0.7,0,1.2-0.6,1.2-1.2v-4.9c0-0.7-0.6-1.2-1.2-1.2h-2.8v-8.5
			c0-0.7-0.6-1.2-1.2-1.2h-82.5c-0.7,0-1.2,0.6-1.2,1.2v8.5H117c-0.7,0-1.2,0.6-1.2,1.2l0,4.9c0,0.1,0,0.3,0.1,0.4c0,0,0,0,0,0.1
			l3.9,7.9c-0.6,28.6-9.6,57.3-22.6,71.3c-0.1,0.1-0.2,0.2-0.3,0.4l-0.2-0.2c-1.5-1.9-2.9-4.5-4.4-7.7v-23.3l1.6-4.7
			c0-0.1,0.1-0.3,0.1-0.5v-4c0-0.7-0.6-1.2-1.2-1.2h-0.4V231c0-0.7-0.6-1.2-1.2-1.2H51.5c-0.7,0-1.2,0.6-1.2,1.2v4.4h-1.1
			c-0.7,0-1.2,0.6-1.2,1.2l0,4.1c0,0.1,0,0.3,0.1,0.4l2.2,4.7l0,6.6c-2.3,12.1-6.1,21.3-11.2,27l2.2,1.3c3.7-4.3,6.7-10.2,9-17.7
			v22.9l6.5,3.7h196.6l4.3-2.5l-25.5,0l-0.1,0c-8.5-1-14.1-3.4-15.2-3.9c-1.6-0.6-3.3-1.2-5-1.9c-22-8.9-41.1-23.3-53.9-40.7
			c-0.1-0.2-0.2-0.3-0.3-0.5c-5.5-7.6-9.7-15.5-12.3-23.4l-0.2-0.5c0-0.1,0-0.2,0-0.3c0-0.8,0.6-1.5,1.3-1.6l1.1,0
			c0.3,0.8,0.5,1.7,0.8,2.5c2.5,7,6.2,14.1,11.2,21c12.6,17.5,31.6,32,53.4,40.8c7.4,3,16.1,5.5,24.5,7c0.1,0,9.3,1.9,20.5,1.4
			l5.8-3.4c-0.1-0.2-0.3-0.4-0.6-0.4c-0.6-0.2-1.3-0.4-2-0.7c-1.2-0.4-2.4-0.8-3.4-1.1c-34.4-13-61.6-37.8-71.2-64.6l-0.2-0.5
			c0-0.1,0-0.2,0-0.2c0-0.8,0.7-1.5,1.5-1.6l1.2,0c0.3,0.8,0.6,1.6,0.9,2.5c2.6,7,6.7,14.1,12,21c13.5,17.5,33.7,32,57,40.8
			c2.8,1.1,5.6,2,8.3,2.9l3-1.7c-3.3-1-6.8-2.2-10.3-3.5C237,267.8,217.3,253.7,204.1,236.7z M196,287.2h-6.6V284h6.6V287.2z
			 M203.2,287.2h-5.7V284h5.7V287.2z M203.2,280.3v2.2h-9.7V279h7.2C201.5,279.4,202.3,279.9,203.2,280.3z M189.4,274.1h1.6
			c0.2,0,0.3,0,0.5-0.1c2.1,1.2,4.1,2.4,6.2,3.5h-8.3V274.1z M180.6,266.7c0.1,0.1,0.3,0.2,0.4,0.3h-0.4V266.7z M180.6,269.5h3.9
			c1,0.7,2.1,1.4,3.2,2.1h-7.1V269.5z M180.6,274.1h7.3v3.4h-7.3V274.1z M180.6,279H192v3.4h-11.4V279z M180.6,284h7.3v3.2h-7.3V284
			z M235.9,284.3v-1.2v-9.4v-0.6c0-0.1,0-0.2,0.1-0.3c0.1-0.1,0.2-0.2,0.4-0.2c0.3,0,0.5,0.2,0.5,0.5v0.3v0.9v9v1.2c0,0,0,0,0,0
			c0,0.3-0.2,0.5-0.5,0.5c-0.3,0-0.5-0.2-0.5-0.5V284.3z M221.3,280.3v-1v-15.1v-0.9c0-0.2,0.1-0.3,0.2-0.4c0.1,0,0.2-0.1,0.3-0.1
			c0.3,0,0.5,0.2,0.5,0.5v0.2v1.4v14.7v0.8c0,0.1,0,0.2-0.1,0.2c-0.1,0.1-0.2,0.3-0.4,0.3c-0.3,0-0.5-0.2-0.5-0.5V280.3z
			 M209.2,275.8v-1.1v-20.6v-1c0-0.1,0-0.1,0-0.1c0.1-0.2,0.2-0.4,0.5-0.4c0.3,0,0.5,0.2,0.5,0.5v0.6v1.3v20.1v0.9c0,0,0,0.1,0,0.1
			c0,0.2-0.2,0.4-0.5,0.4c-0.3,0-0.5-0.2-0.5-0.5V275.8z M206.4,193.4v2.4h-76.8v-2.4H206.4z M196.8,183.7h5.6v7.2h-5.6V183.7z
			 M141.8,183.7h52.5v7.2h-52.5V183.7z M132.9,183.7h6.4v7.2h-6.4V183.7z M122.4,183.7h7.9v7.2h-7.9V183.7z M118.3,193.4h8.8v2.4
			h-8.8V193.4z M119.1,198.3h8.6l3.2,5.6h-9.1L119.1,198.3z M120.7,279h4.1v3.4h-4.1V279z M92.4,274.7c0.8,1.4,1.6,2.6,2.4,3.7
			l0.4,0.4c-0.9,0.9-1.9,1.6-2.8,2.3V274.7z M88.2,232.3h1.7v3.2h-1.7V232.3z M62,232.3h23.7v3.2H62V232.3z M57.6,232.3h1.9v3.2
			h-1.9V232.3z M50.4,237.9h2.8v1.5h-2.8V237.9z M51.1,242h2.5l0.9,2.4h-2.3L51.1,242z M55.1,287.2h-2.4v-8.8h2.4V287.2z
			 M55.1,275.9h-2.4v-29h2.4V275.9z M55.1,235.4h-2.4v-3.2h2.4V235.4z M55.7,237.9h35.8v1.5H55.7V237.9z M56.3,242H91l-0.8,2.4h-33
			L56.3,242z M89.9,282.7c-1.6,0.9-3.2,1.4-4.8,1.6v-5.9h4.8L89.9,282.7z M63.2,287.2h-5.6v-8.8h5.6V287.2z M60.5,250.2
			c0.1,0.1,0.1,0.3,0.1,0.4c0.2,1.7,0.3,2.6,0.5,4.2c0.5,3.3,1.1,6.5,2,9.5l0,11.6h-5.6v-29h32.3v16c-1-2.7-1.9-5.5-2.7-8
			c-0.5-1.6-0.7-2.4-1.1-4.1c-0.2-1.1-0.7-1.9-1.5-2.2c-0.6-0.3-1.3-0.1-1.6,0.5c-0.3,0.6-0.1,1.3,0.4,1.7c0,0,0.1,0.1,0.2,0.6
			c0.4,1.7,0.6,2.6,1.1,4.3c1.7,5.4,3.3,9.9,5.1,14v6.2h-4.8v-13.4c0-4.7-4.9-8.6-11-8.6c-4.1,0-7.9,1.8-9.8,4.7
			c-0.3-1.4-0.5-2.8-0.7-4.2c-0.2-1.6-0.3-2.4-0.5-4.1c0-0.2-0.1-1-0.6-1.7c-0.4-0.5-1.2-0.7-1.8-0.2
			C60.2,248.8,60.1,249.6,60.5,250.2z M78.3,286.4c-0.1,0.2-0.4,0.2-0.6,0.2c-0.2,0-0.4-0.1-0.5-0.2c-1.9-1.7-8.4-8.4-12.9-21.5
			c-0.1-0.4,0.1-0.8,0.5-1c0.4-0.1,0.8,0.1,1,0.5c4.4,12.8,10.7,19.2,12.5,20.9C78.6,285.7,78.6,286.1,78.3,286.4z M82.6,284.4
			c-1.3-0.1-2.5-0.5-3.8-1.1v-4.8h3.8V284.4z M82.6,275.9h-3.8V264c0-3.8-3.5-6.7-8.2-6.7c-0.2,0-0.4,0-0.6,0
			c1.3-0.5,2.7-0.8,4.2-0.8c4.7,0,8.5,2.7,8.5,6.1V275.9z M118.2,287.2H94.1c1.7-1.1,3.5-2.5,5.2-4.1c3,2.2,7.8,3.3,10.9,3.3
			c0.3,0,0.6,0,0.8,0c2.3-0.2,4.7-1,7.1-2.4V287.2z M101.1,281.3L101.1,281.3c0.2-0.2,0.3-0.3,0.4-0.5c3.4-3.7,6.6-8.3,9.5-13.8
			v16.8c0,0-0.1,0-0.1,0C108.3,284,103.9,283.1,101.1,281.3z M119.8,267h-0.4c-0.7,0-1.2,0.6-1.2,1.2V281c-1.9,1.3-3.8,2.2-5.7,2.6
			v-19.5c2.8-5.8,5.3-12.3,7.3-19.4V267z M120.1,234.7C120.1,234.7,120,234.7,120.1,234.7c-3.3,14.9-8.3,27.7-14.4,37.1l-4.3,5.9
			l0,0c-0.5,0.6-1,1.2-1.5,1.7c-3.7,4-7.5,6.7-11.2,8c0,0-0.1,0-0.1,0.1h-4.3v-0.8c4.7-0.2,9.8-3.1,14.7-8.4
			c10-10.8,17.7-30,21.2-51.1V234.7z M130.4,287.2h-9.6V284h9.6V287.2z M130.4,282.5h-4.1V279h4.1V282.5z M130.4,277.5h-9.6v-3.4
			h9.6V277.5z M130.4,271.6h-9.6v-2.1h9.6V271.6z M132,267h-9.6v-60.6h9.6V267z M139.3,287.2h-6.5V284h6.5V287.2z M143.4,279v3.4
			h-10.5V279H143.4z M132.9,277.5v-3.4h6.5v3.4H132.9z M140.8,277.5v-3.4h6.6v3.4H140.8z M147.4,287.2h-6.6V284h6.6V287.2z
			 M155.5,287.2h-6.5V284h6.5V287.2z M155.5,282.5h-10.6V279h10.6V282.5z M155.5,277.5h-6.5v-3.4h6.5V277.5z M150.7,238.3
			c0-1,0.2-2.1,0.5-3.1c0.7,1.2,1.5,2.4,2.3,3.6h-2.8V238.3z M150.7,240.3h3.8c0.3,0.4,0.6,0.9,1,1.3l0,0c0,0.1,0,0.1,0,0.2l0,1
			h-4.8V240.3z M150.7,244.3h4.8v2.5h-4.8V244.3z M150.7,248.3h4.8v2.5h-4.8V248.3z M150.7,252.4h4.8v2.5h-4.8V252.4z M150.7,256.4
			h4.8v2.5h-4.8V256.4z M150.7,260.5h4.8v2.5h-4.8V260.5z M150.7,264.5h4.8v2.5h-4.8V264.5z M145.5,224.5c1.2,2.7,2.5,5.3,4,7.9
			c-0.9,1.9-1.3,3.9-1.3,5.9V267h-2.6V224.5z M155.5,269.5v2.1h-22.6v-2.1H155.5z M159.7,231.4l-3.4-3.4c1.3-1,2.8-1.8,4.3-2.4
			l1.6,4C161.4,230.1,160.5,230.7,159.7,231.4z M167.7,228.1c-1.4,0-2.7,0.3-4,0.8l-1.6-3.9c1.8-0.6,3.7-0.9,5.6-0.9V228.1z
			 M169.2,228.2v-4c1.6,0.1,3.2,0.4,4.8,0.8l-1.6,3.9C171.3,228.6,170.3,228.3,169.2,228.2z M173.7,229.6l1.7-4.1
			c1.6,0.6,3.1,1.4,4.4,2.4l-3.5,3.5C175.4,230.8,174.6,230.1,173.7,229.6z M177.2,232.6l3.6-3.6c1.4,1.3,2.6,2.8,3.3,4.4l-5.1,2.1
			C178.6,234.4,178,233.4,177.2,232.6z M185.4,259h-1.9c-1-0.8-2-1.6-3-2.4v-0.2h4.8V259z M185.4,254.9h-4.8v-2.5h4.8V254.9z
			 M185.4,250.9h-4.8v-2.5h4.8V250.9z M185.4,246.8h-4.8v-2.5h4.8V246.8z M185.4,242.8h-4.8v-1c0-0.5,0-1-0.1-1.5h4.9V242.8z
			 M185.4,238.8h-5.1c-0.1-0.7-0.3-1.3-0.6-2l5.1-2.1c0.4,1.2,0.6,2.4,0.6,3.6V238.8z M199.9,244.6c0.6,0.7,1.1,1.3,1.6,1.9V267
			h-1.6V244.6z M203.2,269.5v2c-1.4-0.7-2.6-1.4-3.7-2H203.2z M192,233.8c1.9,3,4.1,6,6.4,9V267h-3.3c-1-0.6-2-1.2-3.1-2V233.8z
			 M201.6,233.4c-4-5.7-7.2-11.5-9.3-17.3c-0.3-0.9-0.6-1.7-0.9-2.6c-0.3-0.9-1.2-1.5-2.2-1.5l-1.5,0l0,0c-2.2,0.2-3.9,2-3.9,4.1
			c0,0.3,0,0.5,0.1,0.8c0,0.1,0,0.1,0,0.2l0.2,0.7c1.6,4.5,3.8,9.1,6.4,13.6V264c-0.9-0.6-1.8-1.2-2.6-1.8v-23.9
			c0-9-9.1-16.6-19.9-16.6c-4.8,0-9.4,1.5-13.1,4.3c-1.7-3.3-3.2-6.6-4.3-9.9c-0.3-0.8-0.6-1.7-0.8-2.5l0-0.1
			c-0.3-0.9-1.1-1.6-2.1-1.6l-1.4,0c-2.1,0.2-3.7,2-3.7,4.1c0,0.3,0,0.5,0.1,0.8c0,0.1,0,0.1,0,0.2l0.2,0.7c0.3,1,0.7,2,1.2,3.3V267
			h-9.5v-60.6h67.1V233.4z M133.8,203.9l-3.2-5.6h74.3l-2.7,5.6H133.8z"/>
		<rect x="160.4" y="199.8" class="st0" width="6.2" height="2.3"/>
		<path class="st0" d="M116,312.2v-9.7l-19.8-1.7v3l0.2,0.1c5.4,1.7,9.2,6.6,9.5,12.4c0,0.2,0,0.5,0,0.7l-0.1,0.6l0.5-0.4
			c2.6-2,5.5-3.5,8.7-4.3C115.7,312.9,116,312.6,116,312.2z"/>
		<rect x="152.3" y="199.8" class="st0" width="6.2" height="2.3"/>
		<polygon class="st0" points="208.7,315.4 230.5,302.8 208.7,302.8 		"/>
		<rect x="192.7" y="199.8" class="st0" width="6.2" height="2.3"/>
		<path class="st0" d="M10,137.8v124.9l27,15.6c2.8-3.2,5.1-8.2,6.7-14.6c0.9-3.8,2.5-11.2,3.1-17.7l0-0.1l-1.5-3
			c-0.1-0.2-0.2-0.4-0.2-0.6c-0.1-0.4-0.2-0.8-0.2-1.2v-4c0-1.5,0.8-3,2.2-3.7l0.1-0.1v-1.9c0-2.3,1.9-4.2,4.2-4.2h39.7
			c2.3,0,4.2,1.9,4.2,4.2v2.3l0.1,0.1c1,0.8,1.5,2,1.5,3.3c0,0,0,4,0,4c0,0.1,0,0.2,0,0.3c0,0.3-0.1,0.7-0.2,1l-1.4,4.2l0,17.7
			l0,0.1c0.7,1.8,1.4,3.4,2.1,4.9l0.8,1.7l0.2-0.3c10.6-14.7,17.6-39.2,18.2-64.2l0-0.1l-3.6-7.2c0-0.1-0.2-0.4-0.2-0.4
			c-0.2-0.5-0.3-1-0.3-1.5v-4.9c0-2.2,1.7-4.1,3.9-4.2l0.2,0l0-1.8c-0.1-0.3-0.1-0.5-0.1-0.8c0-0.3,0-0.5,0.1-0.9v-2
			c0-2.3,1.9-4.2,4.2-4.2h82.5c2.3,0,4.3,1.9,4.3,4.2v5.5l0.2,0c2.2,0.2,3.8,2,3.8,4.2v4.9c0,1.5-0.8,2.9-2,3.6l-0.1,0l-2.7,5.6
			l0,29.4l0.1,0.1c12.8,16.2,31.9,29.6,53.7,37.9c3.4,1.3,6.9,2.5,10.2,3.5c0.6,0.2,1.2,0.5,1.7,1l27.2-15.7V137.8H10z"/>
		<rect x="136.1" y="199.8" class="st0" width="6.2" height="2.3"/>
		<polygon class="st0" points="155,11.5 15.2,92.3 294.8,92.3 		"/>
	</g>
	<g>
		<polygon class="st1" points="112.6,295.9 119.6,297 240.6,297 242,296.2 119.5,296.2 		"/>
		<path class="st1" d="M258.9,278.8c-23.3-8.8-43.6-23.3-57-40.8c-5.3-6.9-9.3-14-12-21c-0.3-0.9-0.6-1.7-0.9-2.5l-1.2,0
			c-0.8,0.1-1.5,0.8-1.5,1.6c0,0.1,0,0.2,0,0.2l0.2,0.5c9.5,26.8,36.8,51.6,71.2,64.6c1,0.4,2.2,0.8,3.4,1.1c0.7,0.2,1.4,0.5,2,0.7
			c0.2,0.1,0.4,0.2,0.6,0.4l3.5-2C264.5,280.8,261.7,279.8,258.9,278.8z"/>
		<path class="st1" d="M61.6,292.5h28.8c0.1,0,0.2,0,0.3,0c0,0,0.1,0,0.1,0l0.1,0l0.2,0l28.4,1.2l0.8,0h126l7-4H56.7L61.6,292.5z"/>
		<path class="st1" d="M237.4,285.6c-8.4-1.5-17.1-4-24.5-7c-21.8-8.8-40.8-23.3-53.4-40.8c-5-6.9-8.7-14-11.2-21
			c-0.3-0.9-0.6-1.7-0.8-2.5l-1.1,0c-0.7,0.1-1.3,0.8-1.3,1.6c0,0.1,0,0.2,0,0.3l0.2,0.5c2.6,8,6.8,15.8,12.3,23.4
			c0.1,0.1,0.3,0.3,0.3,0.5c12.8,17.4,32,31.8,53.9,40.7c1.6,0.7,3.3,1.3,5,1.9c1.1,0.5,6.7,2.9,15.2,3.9l0.1,0l25.5,0l0.2-0.1
			C246.7,287.5,237.5,285.7,237.4,285.6z"/>
		<rect x="132.9" y="284" class="st1" width="6.5" height="3.2"/>
		<path class="st1" d="M156.3,228l3.4,3.4c0.8-0.7,1.7-1.3,2.6-1.8l-1.6-4C159.1,226.2,157.7,227,156.3,228z"/>
		<path class="st1" d="M180.6,256.6c0.9,0.8,1.9,1.6,3,2.4h1.9v-2.5h-4.8V256.6z"/>
		<path class="st1" d="M169.2,228.2c1.1,0.1,2.1,0.4,3.1,0.8l1.6-3.9c-1.5-0.5-3.1-0.8-4.8-0.8V228.2z"/>
		<path class="st1" d="M187.7,212L187.7,212l1.5,0c1,0,1.9,0.6,2.2,1.5c0.3,0.9,0.6,1.7,0.9,2.6c2.2,5.8,5.3,11.6,9.3,17.3v-27
			h-67.1V267h9.5v-46.1c-0.5-1.3-0.9-2.3-1.2-3.3l-0.2-0.7c0-0.1,0-0.1,0-0.2c-0.1-0.3-0.1-0.5-0.1-0.8c0-2.1,1.6-3.9,3.7-4.1l1.4,0
			c1,0,1.8,0.6,2.1,1.6l0,0.1c0.2,0.8,0.5,1.7,0.8,2.5c1.1,3.3,2.6,6.6,4.3,9.9c3.7-2.7,8.3-4.3,13.1-4.3c10.8,0,19.9,7.6,19.9,16.6
			v23.9c0.9,0.6,1.8,1.2,2.6,1.8v-32.8c-2.6-4.5-4.8-9.1-6.4-13.6l-0.2-0.7c0,0,0-0.1,0-0.2c-0.1-0.3-0.1-0.5-0.1-0.8
			C183.8,213.9,185.4,212.2,187.7,212z"/>
		<rect x="132.9" y="279" class="st1" width="10.5" height="3.4"/>
		<path class="st1" d="M167.7,228.1v-4c-1.9,0-3.7,0.3-5.6,0.9l1.6,3.9C165,228.4,166.3,228.2,167.7,228.1z"/>
		<rect x="180.6" y="279" class="st1" width="11.4" height="3.4"/>
		<rect x="132.9" y="269.5" class="st1" width="22.6" height="2.1"/>
		<rect x="196.8" y="183.7" class="st1" width="5.6" height="7.2"/>
		<rect x="197.5" y="284" class="st1" width="5.7" height="3.2"/>
		<rect x="129.6" y="193.4" class="st1" width="76.8" height="2.4"/>
		<rect x="150.7" y="256.4" class="st1" width="4.8" height="2.5"/>
		<rect x="132.9" y="183.7" class="st1" width="6.4" height="7.2"/>
		<rect x="141.8" y="183.7" class="st1" width="52.5" height="7.2"/>
		<rect x="150.7" y="260.5" class="st1" width="4.8" height="2.5"/>
		<path class="st1" d="M203.2,271.5v-2h-3.7C200.6,270.1,201.8,270.8,203.2,271.5z"/>
		<rect x="180.6" y="274.1" class="st1" width="7.3" height="3.4"/>
		<path class="st1" d="M179.7,228c-1.3-1-2.8-1.8-4.4-2.4l-1.7,4.1c0.9,0.5,1.8,1.1,2.5,1.9L179.7,228z"/>
		<rect x="189.4" y="284" class="st1" width="6.6" height="3.2"/>
		<path class="st1" d="M204.9,198.3h-74.3l3.2,5.6h68.4L204.9,198.3z M142.3,202.1h-6.2v-2.3h6.2V202.1z M150.4,202.1h-6.2v-2.3h6.2
			V202.1z M158.5,202.1h-6.2v-2.3h6.2V202.1z M166.6,202.1h-6.2v-2.3h6.2V202.1z M174.7,202.1h-6.2v-2.3h6.2V202.1z M182.8,202.1
			h-6.2v-2.3h6.2V202.1z M190.9,202.1h-6.2v-2.3h6.2V202.1z M199,202.1h-6.2v-2.3h6.2V202.1z"/>
		<rect x="180.6" y="284" class="st1" width="7.3" height="3.2"/>
		<path class="st1" d="M180.6,271.6h7.1c-1.1-0.7-2.1-1.4-3.2-2.1h-3.9V271.6z"/>
		<path class="st1" d="M203.2,280.3c-0.9-0.4-1.7-0.8-2.6-1.3h-7.2v3.4h9.7V280.3z"/>
		<path class="st1" d="M191,274.1h-1.6v3.4h8.3c-2.1-1.1-4.2-2.3-6.2-3.5C191.3,274.1,191.2,274.1,191,274.1z"/>
		<rect x="148.9" y="284" class="st1" width="6.5" height="3.2"/>
		<rect x="150.7" y="264.5" class="st1" width="4.8" height="2.5"/>
		<rect x="148.9" y="274.1" class="st1" width="6.5" height="3.4"/>
		<path class="st1" d="M180.6,267h0.4c-0.1-0.1-0.3-0.2-0.4-0.3V267z"/>
		<rect x="144.9" y="279" class="st1" width="10.6" height="3.4"/>
		<rect x="140.8" y="274.1" class="st1" width="6.6" height="3.4"/>
		<rect x="150.7" y="248.3" class="st1" width="4.8" height="2.5"/>
		<path class="st1" d="M199.9,244.6V267h1.6v-20.5C201,245.9,200.5,245.2,199.9,244.6z"/>
		<rect x="132.9" y="274.1" class="st1" width="6.5" height="3.4"/>
		<path class="st1" d="M150.7,242.8h4.8l0-1c0,0,0-0.1,0-0.2l0,0c-0.3-0.4-0.6-0.9-1-1.3h-3.8V242.8z"/>
		<rect x="150.7" y="244.3" class="st1" width="4.8" height="2.5"/>
		<path class="st1" d="M184.2,233.3c-0.8-1.6-1.9-3.1-3.3-4.4l-3.6,3.6c0.7,0.9,1.3,1.8,1.9,2.8L184.2,233.3z"/>
		<rect x="180.6" y="248.3" class="st1" width="4.8" height="2.5"/>
		<rect x="180.6" y="244.3" class="st1" width="4.8" height="2.5"/>
		<path class="st1" d="M185.4,240.3h-4.9c0.1,0.6,0.1,1.1,0.1,1.5v1h4.8V240.3z"/>
		<rect x="180.6" y="252.4" class="st1" width="4.8" height="2.5"/>
		<path class="st1" d="M185.4,238.3c0-1.2-0.2-2.4-0.6-3.6l-5.1,2.1c0.2,0.6,0.4,1.3,0.6,2h5.1V238.3z"/>
		<path class="st1" d="M198.4,242.7c-2.3-2.9-4.5-6-6.4-9V265c1.1,0.7,2.1,1.4,3.1,2h3.3V242.7z"/>
		<rect x="150.7" y="252.4" class="st1" width="4.8" height="2.5"/>
		<path class="st1" d="M149.5,232.4c-1.5-2.6-2.8-5.2-4-7.9V267h2.6v-28.7C148.2,236.3,148.6,234.3,149.5,232.4z"/>
		<path class="st1" d="M150.7,238.3v0.5h2.8c-0.8-1.2-1.6-2.4-2.3-3.6C150.8,236.2,150.7,237.2,150.7,238.3z"/>
		<rect x="140.8" y="284" class="st1" width="6.6" height="3.2"/>
		<polygon class="st1" points="196.4,309.3 196.4,309.3 196.4,309.3 		"/>
		<rect x="143.3" y="299.5" class="st1" width="6.6" height="3.8"/>
		<rect x="151.4" y="299.5" class="st1" width="15.5" height="3.8"/>
		<rect x="155.4" y="304.8" class="st1" width="6.6" height="4"/>
		<rect x="163.5" y="304.8" class="st1" width="15.5" height="4"/>
		<rect x="176.5" y="299.5" class="st1" width="6.6" height="3.8"/>
		<rect x="168.4" y="299.5" class="st1" width="6.6" height="3.8"/>
		<rect x="184.5" y="299.5" class="st1" width="6.6" height="3.8"/>
		<rect x="57.6" y="278.4" class="st1" width="5.6" height="8.8"/>
		<path class="st1" d="M84.2,287.4h4.3c0,0,0.1,0,0.1-0.1c3.7-1.3,7.5-4,11.2-8c0.5-0.5,1-1.1,1.5-1.7l0,0l4.3-5.9
			c6.1-9.4,11-22.1,14.3-37c0,0,0-0.1,0-0.1v-7.6c-3.5,21.2-11.2,40.3-21.2,51.1c-4.9,5.3-10,8.2-14.7,8.4V287.4z"/>
		<rect x="55.7" y="237.9" class="st1" width="35.8" height="1.5"/>
		<path class="st1" d="M85.1,284.3c1.5-0.2,3.2-0.8,4.8-1.6l0-4.3h-4.8V284.3z"/>
		<rect x="88.2" y="232.3" class="st1" width="1.7" height="3.2"/>
		<rect x="62" y="232.3" class="st1" width="23.7" height="3.2"/>
		<rect x="57.6" y="232.3" class="st1" width="1.9" height="3.2"/>
		<polygon class="st1" points="90.2,244.4 91,242 56.3,242 57.2,244.4 		"/>
		<path class="st1" d="M62.5,248.6c0.5,0.7,0.6,1.5,0.6,1.7c0.2,1.7,0.2,2.5,0.5,4.1c0.2,1.4,0.4,2.8,0.7,4.2
			c1.9-2.9,5.6-4.7,9.8-4.7c6,0,11,3.8,11,8.6v13.4h4.8v-6.2c-1.8-4.1-3.3-8.5-5.1-14c-0.5-1.7-0.8-2.6-1.1-4.3
			c-0.1-0.4-0.2-0.6-0.2-0.6c-0.5-0.4-0.7-1.1-0.4-1.7c0.3-0.6,1-0.8,1.6-0.5c0.7,0.4,1.2,1.1,1.5,2.2c0.3,1.6,0.5,2.4,1.1,4.1
			c0.8,2.4,1.7,5.2,2.7,8v-16H57.6v29h5.6l0-11.6c-0.9-3-1.5-6.2-2-9.5c-0.2-1.6-0.3-2.5-0.5-4.2c0-0.1-0.1-0.3-0.1-0.4
			c-0.4-0.6-0.3-1.3,0.2-1.8C61.3,248,62.1,248.1,62.5,248.6z"/>
		<path class="st1" d="M210.2,276.1c0,0,0-0.1,0-0.1v-0.9V255v-1.3v-0.6c0-0.3-0.2-0.5-0.5-0.5c-0.2,0-0.4,0.1-0.5,0.4
			c0,0,0,0.1,0,0.1v1v20.6v1.1v0.2c0,0.3,0.2,0.5,0.5,0.5C209.9,276.5,210.1,276.3,210.2,276.1z"/>
		<path class="st1" d="M222.3,280.7c0-0.1,0.1-0.2,0.1-0.2v-0.8V265v-1.4v-0.2c0-0.3-0.2-0.5-0.5-0.5c-0.1,0-0.2,0-0.3,0.1
			c-0.1,0.1-0.2,0.2-0.2,0.4v0.9v15.1v1v0.1c0,0.3,0.2,0.5,0.5,0.5C222,280.9,222.2,280.8,222.3,280.7z"/>
		<path class="st1" d="M236.9,284.5C236.9,284.4,236.9,284.4,236.9,284.5l0-1.2v-9v-0.9v-0.3c0-0.3-0.2-0.5-0.5-0.5
			c-0.2,0-0.3,0.1-0.4,0.2c0,0.1-0.1,0.2-0.1,0.3v0.6v9.4v1.2v0.1c0,0.3,0.2,0.5,0.5,0.5C236.7,284.9,236.9,284.7,236.9,284.5z"/>
	</g>
	<g>
		<rect x="180.5" y="304.8" class="st2" width="14.7" height="4"/>
		<rect x="139.2" y="304.8" class="st2" width="14.7" height="4"/>
		<rect x="133.7" y="299.5" class="st2" width="8.1" height="3.8"/>
		<rect x="192.6" y="299.5" class="st2" width="10.5" height="3.8"/>
		<rect x="52.7" y="232.3" class="st2" width="2.4" height="3.2"/>
		<path class="st2" d="M94.8,278.4c-0.8-1.1-1.6-2.3-2.4-3.7v6.4c0.9-0.7,1.8-1.4,2.8-2.3L94.8,278.4z"/>
		<rect x="50.4" y="237.9" class="st2" width="2.8" height="1.5"/>
		<polygon class="st2" points="130.9,203.9 127.7,198.3 119.1,198.3 121.9,203.9 		"/>
		<rect x="52.7" y="246.9" class="st2" width="2.4" height="29"/>
		<polygon class="st2" points="53.6,242 51.1,242 52.3,244.4 54.5,244.4 		"/>
		<rect x="118.3" y="193.4" class="st2" width="8.8" height="2.4"/>
		<rect x="122.3" y="206.4" class="st2" width="9.6" height="60.6"/>
		<rect x="52.7" y="278.4" class="st2" width="2.4" height="8.8"/>
		<rect x="120.7" y="279" class="st2" width="4.1" height="3.4"/>
		<path class="st2" d="M110.2,286.4c-3.1,0-7.9-1.1-10.9-3.3c-1.7,1.6-3.5,3-5.2,4.1h24.1V284c-2.4,1.4-4.8,2.2-7.1,2.4
			C110.8,286.4,110.5,286.4,110.2,286.4z"/>
		<rect x="120.7" y="284" class="st2" width="9.6" height="3.2"/>
		<rect x="122.4" y="183.7" class="st2" width="7.9" height="7.2"/>
		<path class="st2" d="M110.9,283.9c0,0,0.1,0,0.1,0v-16.8c-2.9,5.5-6.1,10.1-9.5,13.8c-0.1,0.1-0.3,0.3-0.4,0.4l0,0
			C103.9,283.1,108.3,284,110.9,283.9z"/>
		<path class="st2" d="M112.5,283.6c1.9-0.4,3.8-1.3,5.7-2.6v-12.8c0-0.7,0.6-1.2,1.2-1.2h0.4v-22.3c-2,7.1-4.5,13.6-7.3,19.4V283.6
			z"/>
		<rect x="120.7" y="274.1" class="st2" width="9.6" height="3.4"/>
		<rect x="120.7" y="269.5" class="st2" width="9.6" height="2.1"/>
		<rect x="126.3" y="279" class="st2" width="4.1" height="3.4"/>
		<path class="st2" d="M78.8,283.2c1.3,0.6,2.5,1,3.8,1.1v-6h-3.8V283.2z"/>
		<path class="st2" d="M74.1,256.5c-1.4,0-2.9,0.3-4.2,0.8c0.2,0,0.4,0,0.6,0c4.7,0,8.2,2.9,8.2,6.7v11.9h3.8v-13.4
			C82.6,259.2,78.8,256.5,74.1,256.5z"/>
		<path class="st2" d="M65.8,264.5c-0.1-0.4-0.6-0.6-1-0.5c-0.4,0.1-0.6,0.6-0.5,1c4.5,13.1,11,19.8,12.9,21.5
			c0.1,0.1,0.3,0.2,0.5,0.2c0.2,0,0.4-0.1,0.6-0.2c0.3-0.3,0.3-0.8,0-1.1C76.5,283.7,70.2,277.3,65.8,264.5z"/>
		<path class="st2" d="M155,0L0,89.5v179L155,358l155-89.5v-179L155,0z M246.3,293.7l-4.3,2.5l-1.4,0.8l-4.3,2.5h-30.6v17.2
			c0,0.1,0,0.3,0,0.4l-2.4,1.4c-0.1-0.6-0.1-1.2-0.1-1.8v-11.9h-6.5v4.5c0,0,0,0.1,0,0.1c0,0,0,0.1,0,0.1c0,0.4-0.3,0.8-0.8,0.8
			h-11.4v4.7c0,0.4-0.3,0.8-0.8,0.8s-0.8-0.3-0.8-0.8v-4.7h-14.7v4h11.8c0.4,0,0.8,0.3,0.8,0.8s-0.3,0.8-0.8,0.8h-24.3
			c-0.4,0-0.8-0.3-0.8-0.8s0.3-0.8,0.8-0.8h11v-4h-15.5v4.7c0,0.4-0.3,0.8-0.8,0.8s-0.8-0.3-0.8-0.8v-4.7h-11.4
			c-0.4,0-0.8-0.3-0.8-0.8c0,0,0-0.1,0-0.1c0,0,0-0.1,0-0.1v-4.5h-4.1v12.6c0,0.1,0,0.2,0,0.2c-0.6,2.9-2.9,5.2-5.9,5.9
			c-2.4,0.6-4.7,1.7-6.6,3.3l-2.3-1.3c2.4-2.1,5.2-3.6,8.3-4.3c2.5-0.6,3.8-2.4,4.1-3.9l0-17.8h-9.6v12.4c0,3.1-2,5.4-5.2,6.2
			c-2.1,0.5-4.1,1.4-5.8,2.7l-2.4-1.4c2.2-1.8,4.8-3,7.6-3.7c2.1-0.5,3.3-1.9,3.3-3.7v-12.5l-25.8-4.1v9.6c0,0.6,0.1,1,1.3,1.2
			l0.1,0c4.7,1.2,8,5.2,8.3,10c0,0,0,0,0,0.1l-2.8-1.6c-0.8-3-3.1-5.3-6.1-6.1c-0.8-0.2-3.3-0.7-3.3-3.7l0-10l-24.8,0l-4.3-2.5
			l-4.9-2.8l-6.5-3.7V263c-2.3,7.5-5.3,13.5-9,17.7l-2.2-1.3c5-5.7,8.9-14.9,11.2-27l0-6.6l-2.2-4.7c0-0.1-0.1-0.3-0.1-0.4l0-4.1
			c0-0.7,0.6-1.2,1.2-1.2h1.1V231c0-0.7,0.6-1.2,1.2-1.2h39.7c0.7,0,1.2,0.6,1.2,1.2v4.4h0.4c0.7,0,1.2,0.6,1.2,1.2v4
			c0,0.2,0,0.3-0.1,0.5l-1.6,4.7v23.3c1.4,3.2,2.9,5.7,4.4,7.7l0.2,0.2c0.1-0.1,0.2-0.2,0.3-0.4c12.9-14,22-42.7,22.6-71.3l-3.9-7.9
			c0,0,0,0,0-0.1c-0.1-0.1-0.1-0.3-0.1-0.4l0-4.9c0-0.7,0.6-1.2,1.2-1.2h2.9v-8.5c0-0.7,0.6-1.2,1.2-1.2h82.5c0.7,0,1.2,0.6,1.2,1.2
			v8.5h2.8c0.7,0,1.2,0.6,1.2,1.2v4.9c0,0.7-0.6,1.2-1.2,1.2h0l-3.6,7.4v31c13.2,17,33,31.1,55.7,39.7c3.5,1.3,7,2.5,10.3,3.5
			l-3,1.7l-3.5,2l-5.8,3.4l-0.2,0.1l-4.3,2.5L246.3,293.7z M208.7,315.4v-12.6h21.8L208.7,315.4z M272.8,278.4
			c-0.5-0.5-1.1-0.8-1.7-1c-3.3-1-6.8-2.2-10.2-3.5c-21.8-8.3-40.9-21.7-53.7-37.9l-0.1-0.1l0-29.4l2.7-5.6l0.1,0
			c1.3-0.8,2-2.2,2-3.6v-4.9c0-2.2-1.6-4-3.8-4.2l-0.2,0v-5.5c0-2.3-1.9-4.2-4.3-4.2h-82.5c-2.3,0-4.2,1.9-4.2,4.2v2
			c-0.1,0.3-0.1,0.6-0.1,0.9c0,0.3,0,0.6,0.1,0.8l0,1.8l-0.2,0c-2.2,0.2-3.9,2-3.9,4.2v4.9c0,0.5,0.1,1,0.3,1.5c0,0,0.1,0.3,0.2,0.4
			l3.6,7.2l0,0.1c-0.6,24.9-7.6,49.5-18.2,64.2l-0.2,0.3l-0.8-1.7c-0.7-1.5-1.4-3.1-2.1-4.9l0-0.1l0-17.7l1.4-4.2
			c0.1-0.3,0.2-0.6,0.2-1c0-0.1,0-0.2,0-0.3c0-0.1,0-4,0-4c0-1.3-0.6-2.4-1.5-3.3l-0.1-0.1v-2.3c0-2.3-1.9-4.2-4.2-4.2H51.5
			c-2.3,0-4.2,1.9-4.2,4.2v1.9l-0.1,0.1c-1.4,0.8-2.2,2.2-2.2,3.7v4c0,0.4,0.1,0.9,0.2,1.2c0.1,0.2,0.1,0.4,0.2,0.6l1.5,3l0,0.1
			c-0.6,6.5-2.2,13.9-3.1,17.7c-1.6,6.5-4,11.4-6.7,14.6l-27-15.6V137.8h290v124.9L272.8,278.4z M96.4,304l-0.2-0.1v-3l19.8,1.7v9.7
			c0,0.4-0.3,0.7-1,0.8c-3.2,0.8-6.2,2.2-8.7,4.3l-0.5,0.4l0.1-0.6c0-0.2,0-0.5,0-0.7C105.5,310.6,101.8,305.7,96.4,304z M15.2,92.3
			L155,11.5l139.8,80.7H15.2z"/>
	</g>
	<g>
		<path class="st1" d="M64.3,104.2h6.9l9.8,16.1h0.1v-16.1h5.1v23.2h-6.7l-10.1-16.5h-0.1v16.5h-5.1V104.2z"/>
		<path class="st1" d="M89.7,115.8c0-1.9,0.3-3.5,0.9-5c0.6-1.5,1.5-2.8,2.6-3.8c1.1-1.1,2.4-1.9,4-2.4c1.5-0.6,3.2-0.8,5-0.8
			c1.8,0,3.5,0.3,5,0.8c1.5,0.6,2.8,1.4,4,2.4c1.1,1.1,2,2.3,2.6,3.8c0.6,1.5,0.9,3.2,0.9,5c0,1.9-0.3,3.5-0.9,5
			c-0.6,1.5-1.5,2.8-2.6,3.8c-1.1,1.1-2.4,1.9-4,2.4c-1.5,0.6-3.2,0.9-5,0.9c-1.8,0-3.5-0.3-5-0.9c-1.5-0.6-2.8-1.4-4-2.4
			c-1.1-1.1-2-2.3-2.6-3.8C90.1,119.3,89.7,117.7,89.7,115.8z"/>
		<path class="st1" d="M118.2,104.2h7.7c1.9,0,3.6,0.2,5.3,0.6c1.7,0.4,3.1,1.1,4.4,2c1.2,0.9,2.2,2.1,3,3.6
			c0.7,1.5,1.1,3.3,1.1,5.4c0,1.9-0.4,3.5-1.1,5c-0.7,1.4-1.7,2.6-2.9,3.6c-1.2,1-2.6,1.7-4.2,2.2c-1.6,0.5-3.2,0.8-4.9,0.8h-8.3
			V104.2z"/>
		<path class="st1" d="M143.2,104.2h15.7v4.7h-10.6v4.3h10v4.7h-10v4.7h11.2v4.7h-16.3V104.2z"/>
		<path class="st1" d="M178.8,110.3c-0.5-0.6-1.1-1.1-1.8-1.4c-0.7-0.3-1.6-0.5-2.5-0.5c-1,0-1.8,0.2-2.7,0.6
			c-0.8,0.4-1.5,0.9-2.1,1.6c-0.6,0.7-1.1,1.5-1.4,2.4c-0.3,0.9-0.5,1.9-0.5,3c0,1.1,0.2,2.1,0.5,3c0.3,0.9,0.8,1.7,1.4,2.4
			c0.6,0.7,1.3,1.2,2.1,1.6c0.8,0.4,1.7,0.6,2.6,0.6c1,0,2-0.2,2.8-0.7c0.8-0.4,1.5-1,2-1.8l4.3,3.2c-1,1.4-2.2,2.4-3.7,3
			c-1.5,0.7-3.1,1-4.6,1c-1.8,0-3.5-0.3-5-0.9c-1.5-0.6-2.8-1.4-4-2.4c-1.1-1.1-2-2.3-2.6-3.8c-0.6-1.5-0.9-3.2-0.9-5
			c0-1.9,0.3-3.5,0.9-5c0.6-1.5,1.5-2.8,2.6-3.8c1.1-1.1,2.4-1.9,4-2.4c1.5-0.6,3.2-0.8,5-0.8c0.7,0,1.3,0.1,2,0.2
			c0.7,0.1,1.4,0.3,2.1,0.6c0.7,0.3,1.3,0.6,2,1c0.6,0.4,1.2,1,1.7,1.6L178.8,110.3z"/>
		<path class="st1" d="M185.1,115.8c0,1.1,0.2,2.1,0.5,3c0.3,0.9,0.8,1.7,1.5,2.4c0.6,0.7,1.4,1.2,2.3,1.6c0.9,0.4,1.9,0.6,3,0.6
			c1.1,0,2.1-0.2,3-0.6c0.9-0.4,1.6-0.9,2.3-1.6c0.6-0.7,1.1-1.4,1.5-2.4c0.3-0.9,0.5-1.9,0.5-3c0-1.1-0.2-2.1-0.5-3
			c-0.3-0.9-0.8-1.7-1.5-2.4c-0.6-0.7-1.4-1.2-2.3-1.6c-0.9-0.4-1.9-0.6-3-0.6c-1.1,0-2.1,0.2-3,0.6c-0.9,0.4-1.6,0.9-2.3,1.6
			c-0.6,0.7-1.1,1.5-1.5,2.4C185.3,113.8,185.1,114.7,185.1,115.8z"/>
		<path class="st1" d="M203.3,104.2h6.9l9.8,16.1h0.1v-16.1h5.1v23.2h-6.7l-10.1-16.5h-0.1v16.5h-5.1V104.2z"/>
		<path class="st1" d="M230.1,104.2h15.5v4.7h-10.4v4.7h9.6v4.7h-9.6v9h-5.1V104.2z"/>
	</g>
	<g>
		<path class="st2" d="M70.9,152.5h5.4c0.5,0,1,0.1,1.5,0.2c0.5,0.1,1,0.3,1.3,0.6c0.4,0.3,0.7,0.6,1,1.1s0.4,1,0.4,1.6
			c0,0.8-0.2,1.4-0.7,1.9c-0.4,0.5-1,0.9-1.7,1.1v0c0.9,0.1,1.6,0.5,2.1,1c0.6,0.6,0.8,1.3,0.8,2.2c0,0.8-0.1,1.4-0.4,1.9
			s-0.7,0.9-1.2,1.2s-1,0.5-1.7,0.7c-0.6,0.1-1.3,0.2-1.9,0.2h-5V152.5z M73.4,158.1h2.2c0.8,0,1.4-0.2,1.9-0.5
			c0.4-0.3,0.6-0.8,0.6-1.4c0-0.6-0.2-1.1-0.7-1.3c-0.4-0.3-1.1-0.4-2.1-0.4h-2V158.1z M73.4,164.2h2.2c0.3,0,0.6,0,1-0.1
			s0.7-0.1,1-0.3c0.3-0.1,0.6-0.3,0.8-0.6c0.2-0.3,0.3-0.6,0.3-1.1c0-0.7-0.2-1.2-0.7-1.5c-0.5-0.3-1.2-0.4-2.2-0.4h-2.3V164.2z"/>
		<path class="st2" d="M94.4,161.2c0,0.8-0.1,1.6-0.4,2.2c-0.3,0.7-0.7,1.2-1.2,1.7c-0.5,0.5-1.1,0.8-1.7,1.1s-1.4,0.4-2.2,0.4
			c-0.8,0-1.5-0.1-2.2-0.4s-1.3-0.6-1.8-1.1c-0.5-0.5-0.9-1-1.2-1.7c-0.3-0.7-0.4-1.4-0.4-2.2v-8.7h2.4v8.6c0,0.4,0.1,0.8,0.2,1.2
			c0.1,0.4,0.3,0.7,0.5,1.1c0.2,0.3,0.6,0.6,1,0.8c0.4,0.2,0.9,0.3,1.5,0.3c0.6,0,1.1-0.1,1.5-0.3c0.4-0.2,0.7-0.4,1-0.8
			c0.2-0.3,0.4-0.7,0.5-1.1c0.1-0.4,0.2-0.8,0.2-1.2v-8.6h2.4V161.2z"/>
		<path class="st2" d="M97.3,152.5h4.9c0.9,0,1.8,0.1,2.7,0.3c0.9,0.2,1.7,0.6,2.4,1.2c0.7,0.5,1.3,1.2,1.8,2.1s0.7,2,0.7,3.3
			c0,1.2-0.2,2.2-0.7,3.1c-0.5,0.9-1,1.6-1.8,2.1c-0.7,0.6-1.5,1-2.4,1.2c-0.9,0.3-1.8,0.4-2.7,0.4h-4.9V152.5z M101.8,164.1
			c0.6,0,1.3-0.1,1.9-0.2c0.6-0.1,1.2-0.4,1.7-0.8c0.5-0.4,0.9-0.8,1.3-1.4c0.3-0.6,0.5-1.4,0.5-2.3c0-1-0.2-1.8-0.5-2.4
			c-0.3-0.6-0.7-1.1-1.3-1.5c-0.5-0.3-1.1-0.6-1.7-0.7c-0.6-0.1-1.3-0.2-1.9-0.2h-2v9.5H101.8z"/>
		<path class="st2" d="M116,152.5h2.1l5.9,13.7h-2.8l-1.3-3.1h-6l-1.2,3.1H110L116,152.5z M119.1,161l-2.1-5.6l-2.2,5.6H119.1z"/>
		<path class="st2" d="M125.4,152.5h4.5c0.8,0,1.5,0.1,2.1,0.2c0.6,0.1,1.2,0.4,1.6,0.7c0.5,0.3,0.8,0.7,1,1.2s0.4,1.1,0.4,1.8
			c0,0.8-0.1,1.4-0.4,1.9c-0.3,0.5-0.7,0.9-1.2,1.3c-0.5,0.3-1.1,0.5-1.7,0.7c-0.6,0.1-1.3,0.2-2.1,0.2h-1.9v5.7h-2.4V152.5z
			 M129.6,158.5c0.4,0,0.8,0,1.1-0.1s0.7-0.2,1-0.3c0.3-0.1,0.5-0.4,0.7-0.6c0.2-0.3,0.3-0.6,0.3-1c0-0.4-0.1-0.7-0.3-1
			s-0.4-0.4-0.7-0.6c-0.3-0.1-0.6-0.2-1-0.3c-0.4,0-0.7-0.1-1.1-0.1h-1.8v3.9H129.6z"/>
		<path class="st2" d="M137.2,152.5h9.1v2.1h-6.7v3.5h6.3v2.1h-6.3v3.9h7v2.2h-9.5V152.5z"/>
		<path class="st2" d="M156.1,155.4c-0.3-0.3-0.6-0.6-1.1-0.8c-0.5-0.2-0.9-0.3-1.4-0.3c-0.3,0-0.6,0-0.9,0.1
			c-0.3,0.1-0.5,0.2-0.8,0.3c-0.2,0.1-0.4,0.3-0.6,0.6c-0.1,0.2-0.2,0.5-0.2,0.9c0,0.3,0.1,0.6,0.2,0.8c0.1,0.2,0.3,0.4,0.5,0.6
			s0.5,0.3,0.8,0.4c0.3,0.1,0.7,0.2,1.1,0.3c0.4,0.1,0.9,0.3,1.4,0.5s0.9,0.4,1.3,0.7c0.4,0.3,0.7,0.7,1,1.1c0.3,0.5,0.4,1,0.4,1.7
			c0,0.7-0.1,1.4-0.4,1.9s-0.6,1-1.1,1.4s-1,0.6-1.6,0.8c-0.6,0.2-1.2,0.3-1.9,0.3c-0.9,0-1.8-0.2-2.6-0.5c-0.9-0.3-1.6-0.8-2.1-1.5
			l1.7-1.6c0.3,0.5,0.8,0.8,1.3,1.1c0.6,0.3,1.1,0.4,1.7,0.4c0.3,0,0.6,0,0.9-0.1c0.3-0.1,0.6-0.2,0.8-0.4c0.2-0.2,0.4-0.4,0.6-0.6
			s0.2-0.6,0.2-0.9c0-0.4-0.1-0.7-0.3-0.9c-0.2-0.2-0.4-0.4-0.7-0.6c-0.3-0.2-0.6-0.3-1-0.5c-0.4-0.1-0.8-0.3-1.2-0.4
			c-0.4-0.1-0.8-0.3-1.2-0.5c-0.4-0.2-0.8-0.4-1.1-0.7c-0.3-0.3-0.6-0.7-0.8-1.1c-0.2-0.4-0.3-1-0.3-1.6c0-0.7,0.1-1.3,0.4-1.8
			c0.3-0.5,0.7-0.9,1.1-1.3s1-0.6,1.6-0.7c0.6-0.2,1.2-0.2,1.8-0.2c0.7,0,1.4,0.1,2.1,0.4c0.7,0.2,1.3,0.6,1.9,1.1L156.1,155.4z"/>
		<path class="st2" d="M162.7,154.7h-4.2v-2.1h10.9v2.1h-4.2v11.6h-2.4V154.7z"/>
		<path class="st2" d="M175.2,159.4c0-0.5,0.1-0.9,0.3-1.3c0.2-0.4,0.4-0.8,0.7-1.1s0.7-0.6,1.1-0.7c0.4-0.2,0.9-0.3,1.3-0.3
			c0.5,0,0.9,0.1,1.3,0.3c0.4,0.2,0.8,0.4,1.1,0.7s0.6,0.7,0.7,1.1c0.2,0.4,0.3,0.9,0.3,1.3c0,0.5-0.1,0.9-0.3,1.3
			c-0.2,0.4-0.4,0.8-0.7,1.1c-0.3,0.3-0.7,0.6-1.1,0.7c-0.4,0.2-0.9,0.3-1.3,0.3c-0.5,0-0.9-0.1-1.3-0.3c-0.4-0.2-0.8-0.4-1.1-0.7
			c-0.3-0.3-0.6-0.7-0.7-1.1C175.3,160.3,175.2,159.9,175.2,159.4z"/>
		<path class="st2" d="M189.7,164.1l5.3-5.2c0.4-0.4,0.8-0.8,1-1.3c0.3-0.4,0.4-0.9,0.4-1.4c0-0.6-0.2-1.2-0.6-1.5
			c-0.4-0.4-0.9-0.6-1.6-0.6c-0.7,0-1.2,0.2-1.6,0.7c-0.4,0.4-0.6,1-0.7,1.7l-2.3-0.3c0.1-0.6,0.2-1.1,0.5-1.6
			c0.3-0.5,0.6-0.9,1-1.2c0.4-0.3,0.9-0.6,1.4-0.8s1.1-0.3,1.8-0.3c0.6,0,1.2,0.1,1.7,0.3c0.5,0.2,1,0.4,1.5,0.8
			c0.4,0.3,0.8,0.8,1,1.3c0.3,0.5,0.4,1.1,0.4,1.7c0,0.4-0.1,0.9-0.2,1.2c-0.1,0.4-0.3,0.7-0.5,1.1c-0.2,0.3-0.4,0.7-0.7,1
			c-0.3,0.3-0.6,0.6-0.9,0.9l-4,3.8h6.2v2.1h-9.1V164.1z"/>
		<path class="st2" d="M211,159.4c0,1.1-0.1,2.1-0.3,3s-0.5,1.7-0.9,2.3c-0.4,0.6-0.9,1.1-1.5,1.4s-1.3,0.5-2.1,0.5
			s-1.5-0.2-2.1-0.5c-0.6-0.3-1.1-0.8-1.5-1.4c-0.4-0.6-0.7-1.4-0.9-2.3c-0.2-0.9-0.3-1.9-0.3-3c0-1.1,0.1-2.1,0.3-3
			c0.2-0.9,0.5-1.7,0.9-2.3s0.9-1.1,1.5-1.4c0.6-0.3,1.3-0.5,2.1-0.5s1.5,0.2,2.1,0.5s1.1,0.8,1.5,1.4c0.4,0.6,0.7,1.4,0.9,2.3
			S211,158.3,211,159.4z M208.6,159.4c0-0.5,0-1-0.1-1.6c-0.1-0.6-0.2-1.2-0.3-1.7c-0.2-0.5-0.4-1-0.7-1.4c-0.3-0.4-0.7-0.6-1.3-0.6
			c-0.5,0-1,0.2-1.3,0.6c-0.3,0.4-0.6,0.8-0.7,1.4c-0.2,0.5-0.3,1.1-0.4,1.7c-0.1,0.6-0.1,1.2-0.1,1.6c0,0.5,0,1,0.1,1.6
			c0.1,0.6,0.2,1.2,0.4,1.7c0.2,0.5,0.4,1,0.7,1.3c0.3,0.4,0.8,0.6,1.3,0.6c0.5,0,0.9-0.2,1.3-0.6c0.3-0.4,0.6-0.8,0.7-1.3
			c0.2-0.5,0.3-1.1,0.3-1.7C208.6,160.4,208.6,159.9,208.6,159.4z"/>
		<path class="st2" d="M217.5,155.4l-2.7,2.2l-1.4-1.6l4.3-3.5h2.1v13.7h-2.3V155.4z"/>
		<path class="st2" d="M232.5,152.5l-3.5,5.1l0,0c0.2-0.1,0.4-0.1,0.7-0.2c0.3,0,0.5-0.1,0.8-0.1c0.6,0,1.2,0.1,1.7,0.3
			c0.5,0.2,1,0.5,1.4,0.9c0.4,0.4,0.7,0.9,0.9,1.4s0.3,1.1,0.3,1.7c0,0.7-0.1,1.4-0.4,2c-0.3,0.6-0.6,1.1-1.1,1.5
			c-0.4,0.4-1,0.7-1.6,1c-0.6,0.2-1.3,0.3-2,0.3c-0.7,0-1.4-0.1-2-0.4s-1.1-0.6-1.6-1c-0.5-0.4-0.8-0.9-1.1-1.5
			c-0.3-0.6-0.4-1.2-0.4-1.9c0-0.4,0-0.8,0.1-1.1c0.1-0.3,0.2-0.7,0.3-1c0.1-0.3,0.3-0.6,0.4-1c0.2-0.3,0.4-0.7,0.6-1l3.4-5.3H232.5
			z M227.2,162c0,0.4,0.1,0.7,0.2,1c0.1,0.3,0.3,0.6,0.5,0.9c0.2,0.2,0.5,0.4,0.8,0.6s0.7,0.2,1.1,0.2c0.8,0,1.4-0.2,1.9-0.7
			c0.5-0.5,0.7-1.2,0.7-2c0-0.4-0.1-0.7-0.2-1.1c-0.1-0.3-0.3-0.6-0.5-0.8c-0.2-0.2-0.5-0.4-0.8-0.6c-0.3-0.1-0.7-0.2-1.1-0.2
			c-0.4,0-0.7,0.1-1.1,0.2s-0.6,0.3-0.9,0.6c-0.2,0.2-0.4,0.5-0.6,0.9C227.2,161.2,227.2,161.6,227.2,162z"/>
	</g>
</g>
</svg>
