<svg xmlns="http://www.w3.org/2000/svg" viewBox="0 0 312 359.96"><defs><style>.a{fill:#fff;}</style></defs><title>nodeconf_bplog_nega_2017</title><path class="a" d="M311.5,89.62,156.5.13a1,1,0,0,0-1,0L.5,89.62a1,1,0,0,0-.5.87v179a1,1,0,0,0,.5.87l155,89.49a1,1,0,0,0,1,0l155-89.49a1,1,0,0,0,.5-.87v-179A1,1,0,0,0,311.5,89.62ZM310,268.89,156,357.8,2,268.89V91.07L156,2.15,310,91.07Z"/><path class="a" d="M155.5,11.68,15.66,92.42a1,1,0,0,0,.5,1.87H295.84a1,1,0,0,0,.5-1.87L156.5,11.68A1,1,0,0,0,155.5,11.68Zm136.6,80.6H19.9L156,13.7Z"/><path class="a" d="M10,138.77V263.69a1,1,0,0,0,.5.87l145,83.72a1,1,0,0,0,1,0l145-83.72a1,1,0,0,0,.5-.87V138.77a1,1,0,0,0-1-1H11A1,1,0,0,0,10,138.77ZM72.37,298H89.68l0,8a6.15,6.15,0,0,0,.41,2.21Zm41.75,24.1a15,15,0,0,1,2.89-1,8.2,8.2,0,0,0,6.76-8.11V302.5h5.64V318a3.27,3.27,0,0,1-2.61,2.21,21.86,21.86,0,0,0-8.51,4.28ZM241,297.19H120.46l-6.91-.3,7,1.11h119l-35.37,20.42c0-.23,0-.46,0-.71v-11.9h-2v11.9a12.71,12.71,0,0,0,.13,1.8L156,346.26l-31.09-17.95a15.19,15.19,0,0,1,4.24-1.79,9.6,9.6,0,0,0,7.45-7.45,3.26,3.26,0,0,0,.06-.64V305.81h-2v12.61a1.24,1.24,0,0,1,0,.25,7.63,7.63,0,0,1-5.93,5.9,17.42,17.42,0,0,0-5.62,2.51l-.14.1-2.79-1.61a19.85,19.85,0,0,1,7.13-3.41,5.23,5.23,0,0,0,4.12-3.89V300.5h-9.64v12.42a6.19,6.19,0,0,1-5.2,6.16,17.21,17.21,0,0,0-4.48,1.83L95.5,311.33A2.61,2.61,0,0,0,94,309.4a4.39,4.39,0,0,1-.73-.36,3.32,3.32,0,0,1-1.58-3l0-10H68.91l-4.33-2.5H91.36l.17,0h.28l.1,0h.23l28.38,1.21h124.8Zm7.79-4.5H120.56l-.52,0H248.82ZM12,139.77H300V263.12l-33.1,19.11c-2.3-.75-4.64-1.56-7-2.46-23.31-8.83-43.56-23.32-57-40.8a81.49,81.49,0,0,1-12-21c-.33-.89-.62-1.72-.89-2.54l-1.23,0a1.65,1.65,0,0,0-1.51,1.59,1.43,1.43,0,0,0,0,.24l.19.54c9.52,26.83,36.79,51.58,71.16,64.61,1,.37,2.22.76,3.41,1.14l1.62.52-6.95,4-1.59,0h-1.88l-1.47,0h-.35L250,288h-.16l-1.24-.08-.31,0-1.27-.1-.2,0-1.06-.1-.26,0-1.11-.12-.2,0-.89-.1-.22,0-.91-.12-.22,0-.69-.1-.17,0-.71-.11-.18,0-.53-.09h-.08l-.49-.08-.11,0-.34-.06h0l-.24,0h-.12a126,126,0,0,1-24.5-7c-21.84-8.83-40.81-23.33-53.43-40.82a83.07,83.07,0,0,1-11.21-21c-.3-.86-.58-1.71-.83-2.52l-1.06,0a1.6,1.6,0,0,0-1.31,1.85l.18.55a85.93,85.93,0,0,0,12.31,23.41,1.22,1.22,0,0,1,.34.47c12.82,17.36,32,31.82,53.95,40.71,1.65.67,3.32,1.3,5,1.89a55.66,55.66,0,0,0,15.2,3.9l.12,0h23.52l-4.33,2.5H59.72l-4.33-2.5h.7v-8.78H53.74v7.83L40,279.27c.68-.72,1.52-1.67,2.46-2.88.55-.71,1.13-1.5,1.73-2.39.9-1.33,1.85-2.85,2.8-4.59q.47-.87.95-1.81c.63-1.25,1.26-2.6,1.86-4s1.19-3,1.75-4.63a.75.75,0,0,0-.47-1h0a.75.75,0,0,0-.24,0h-.11l-.18,0-.08,0a.74.74,0,0,0-.14.11l-.06.06a.75.75,0,0,0-.14.24h0a66.77,66.77,0,0,1-2.6,6.55q-.45,1-.91,1.9c-.61,1.22-1.23,2.34-1.84,3.38a43.48,43.48,0,0,1-6.13,8.23L12,263.12Z"/><polygon class="a" points="70.51 111.91 80.61 128.39 87.28 128.39 87.28 105.24 82.18 105.24 82.18 121.33 82.12 121.33 72.27 105.24 65.34 105.24 65.34 128.39 70.44 128.39 70.44 111.91 70.51 111.91"/><path class="a" d="M98.24,128.13a15.14,15.14,0,0,0,10,0,11.44,11.44,0,0,0,4-2.44,11.05,11.05,0,0,0,2.6-3.84,14.07,14.07,0,0,0,0-10.07,11,11,0,0,0-2.6-3.84,11.46,11.46,0,0,0-4-2.44,15.15,15.15,0,0,0-10,0,11.46,11.46,0,0,0-4,2.44,11,11,0,0,0-2.6,3.84,14.07,14.07,0,0,0,0,10.07,11.05,11.05,0,0,0,2.6,3.84A11.44,11.44,0,0,0,98.24,128.13Z"/><path class="a" d="M136.63,125.43a10.66,10.66,0,0,0,2.86-3.6,11,11,0,0,0,1.06-5,12.12,12.12,0,0,0-1.1-5.4,9.86,9.86,0,0,0-3-3.61,12.09,12.09,0,0,0-4.37-2,21.86,21.86,0,0,0-5.28-.62H119.2v23.15h8.34a16.12,16.12,0,0,0,4.94-.75A12.65,12.65,0,0,0,136.63,125.43Z"/><polygon class="a" points="159.94 109.95 159.94 105.24 144.21 105.24 144.21 128.39 160.53 128.39 160.53 123.68 149.31 123.68 149.31 118.97 159.35 118.97 159.35 114.26 149.31 114.26 149.31 109.95 159.94 109.95"/><path class="a" d="M170.58,111.47a6.34,6.34,0,0,1,4.79-2.11,6.15,6.15,0,0,1,2.54.49,5,5,0,0,1,1.85,1.41l3.92-3.2a7.9,7.9,0,0,0-1.7-1.6,9.33,9.33,0,0,0-2-1,11.06,11.06,0,0,0-2.09-.57,12.31,12.31,0,0,0-2-.18,14.27,14.27,0,0,0-5,.85,11.46,11.46,0,0,0-4,2.44,11,11,0,0,0-2.6,3.84,14.07,14.07,0,0,0,0,10.07,11.05,11.05,0,0,0,2.6,3.84,11.44,11.44,0,0,0,4,2.44,14.26,14.26,0,0,0,5,.85,11.53,11.53,0,0,0,4.64-1,8.85,8.85,0,0,0,3.73-3L180,121.78a5.54,5.54,0,0,1-2,1.83,5.76,5.76,0,0,1-2.78.65,6,6,0,0,1-2.57-.56,6.29,6.29,0,0,1-2.08-1.55,7.43,7.43,0,0,1-1.39-2.35,9,9,0,0,1,0-6A7.22,7.22,0,0,1,170.58,111.47Z"/><path class="a" d="M190.34,123.71a8.16,8.16,0,0,0,5.92,0,6.64,6.64,0,0,0,2.27-1.55,6.85,6.85,0,0,0,1.45-2.35,9,9,0,0,0,0-6,6.83,6.83,0,0,0-1.45-2.37,6.65,6.65,0,0,0-2.27-1.55,8.16,8.16,0,0,0-5.92,0,6.64,6.64,0,0,0-2.27,1.55,6.81,6.81,0,0,0-1.45,2.37,9,9,0,0,0,0,6,6.83,6.83,0,0,0,1.45,2.35A6.63,6.63,0,0,0,190.34,123.71Z"/><polygon class="a" points="209.45 111.91 219.55 128.39 226.22 128.39 226.22 105.24 221.12 105.24 221.12 121.33 221.06 121.33 211.21 105.24 204.28 105.24 204.28 128.39 209.38 128.39 209.38 111.91 209.45 111.91"/><polygon class="a" points="246.66 109.95 246.66 105.24 231.13 105.24 231.13 128.39 236.23 128.39 236.23 119.36 245.87 119.36 245.87 114.66 236.23 114.66 236.23 109.95 246.66 109.95"/><path class="a" d="M78.77,167.07a5,5,0,0,0,1.67-.67,3.58,3.58,0,0,0,1.17-1.23,3.71,3.71,0,0,0,.45-1.89,3,3,0,0,0-.83-2.23,3.6,3.6,0,0,0-2.14-1v0a3.67,3.67,0,0,0,1.73-1.09,2.82,2.82,0,0,0,.66-1.92,3.11,3.11,0,0,0-1.33-2.67,4,4,0,0,0-1.35-.6,6.48,6.48,0,0,0-1.53-.18H71.9v13.75h5A9,9,0,0,0,78.77,167.07Zm-4.42-11.52h2a4.2,4.2,0,0,1,2.06.39,1.41,1.41,0,0,1,.66,1.32,1.63,1.63,0,0,1-.64,1.38,3,3,0,0,1-1.86.49H74.35Zm0,9.67v-4h2.29a4.58,4.58,0,0,1,2.23.43,1.6,1.6,0,0,1,.74,1.51,1.79,1.79,0,0,1-.3,1.09,2,2,0,0,1-.76.62,3.31,3.31,0,0,1-1,.28,8.16,8.16,0,0,1-1,.07Z"/><path class="a" d="M85.93,166.16a5.23,5.23,0,0,0,1.76,1.08,6.54,6.54,0,0,0,4.39,0,5.13,5.13,0,0,0,1.75-1.08,5,5,0,0,0,1.16-1.7,5.65,5.65,0,0,0,.43-2.24v-8.7H93v8.6a4.69,4.69,0,0,1-.16,1.19,2.93,2.93,0,0,1-.51,1.06,2.65,2.65,0,0,1-1,.76,3.83,3.83,0,0,1-2.93,0,2.64,2.64,0,0,1-1-.76,2.92,2.92,0,0,1-.51-1.06,4.64,4.64,0,0,1-.16-1.19v-8.6H84.35v8.7a5.77,5.77,0,0,0,.42,2.24A4.86,4.86,0,0,0,85.93,166.16Z"/><path class="a" d="M105.9,166.87a7.4,7.4,0,0,0,2.45-1.23,6.36,6.36,0,0,0,1.77-2.14,6.63,6.63,0,0,0,.68-3.11,7,7,0,0,0-.68-3.25,6.05,6.05,0,0,0-1.77-2.12,7,7,0,0,0-2.45-1.16,10.81,10.81,0,0,0-2.7-.35H98.33v13.75h4.87A9.56,9.56,0,0,0,105.9,166.87Zm-5.13-1.74v-9.51h2a9.54,9.54,0,0,1,1.9.19,4.67,4.67,0,0,1,1.72.72,3.9,3.9,0,0,1,1.25,1.46,5.21,5.21,0,0,1,.49,2.41,4.89,4.89,0,0,1-.49,2.31,4,4,0,0,1-1.25,1.45,5,5,0,0,1-1.72.76,8.3,8.3,0,0,1-1.9.22Z"/><path class="a" d="M115,164.12h6l1.28,3.15H125l-5.92-13.75H117l-6,13.75h2.74Zm3-7.69,2.12,5.59h-4.27Z"/><path class="a" d="M128.85,161.58h1.88a9.55,9.55,0,0,0,2.06-.21,5.06,5.06,0,0,0,1.7-.69,3.46,3.46,0,0,0,1.16-1.25,3.94,3.94,0,0,0,.43-1.92,4.13,4.13,0,0,0-.37-1.83,3.26,3.26,0,0,0-1-1.24,4.45,4.45,0,0,0-1.63-.7,9.79,9.79,0,0,0-2.14-.21H126.4v13.75h2.45Zm0-6h1.79a8.75,8.75,0,0,1,1.1.07,2.88,2.88,0,0,1,1,.28,1.63,1.63,0,0,1,.92,1.57,1.83,1.83,0,0,1-.25,1,1.77,1.77,0,0,1-.68.61,3.17,3.17,0,0,1-1,.31,7.23,7.23,0,0,1-1.15.09h-1.71Z"/><polygon class="a" points="147.7 165.09 140.69 165.09 140.69 161.21 147 161.21 147 159.15 140.69 159.15 140.69 155.66 147.35 155.66 147.35 153.52 138.25 153.52 138.25 167.27 147.7 167.27 147.7 165.09"/><path class="a" d="M155.5,165.08a2.33,2.33,0,0,1-.81.36,3.75,3.75,0,0,1-.87.11,3.8,3.8,0,0,1-1.66-.41,3.5,3.5,0,0,1-1.35-1.11l-1.75,1.63a5.07,5.07,0,0,0,2.1,1.47,7.22,7.22,0,0,0,2.62.5,6.71,6.71,0,0,0,1.92-.27,4.65,4.65,0,0,0,1.59-.82,4,4,0,0,0,1.09-1.37,4.32,4.32,0,0,0,.41-1.93,3.44,3.44,0,0,0-.38-1.69,3.56,3.56,0,0,0-1-1.13,5.32,5.32,0,0,0-1.3-.72q-.71-.27-1.37-.49t-1.07-.35a3.61,3.61,0,0,1-.83-.41,1.76,1.76,0,0,1-.53-.56,1.55,1.55,0,0,1-.19-.8,1.6,1.6,0,0,1,.22-.86,1.83,1.83,0,0,1,.57-.58,2.62,2.62,0,0,1,.78-.33,3.5,3.5,0,0,1,.85-.11,3.27,3.27,0,0,1,1.43.34,3,3,0,0,1,1.1.84l1.59-1.75a5.2,5.2,0,0,0-1.87-1.11,6.55,6.55,0,0,0-2.13-.37,7,7,0,0,0-1.83.24,5.11,5.11,0,0,0-1.61.74,3.86,3.86,0,0,0-1.15,1.25,3.56,3.56,0,0,0-.44,1.81,3.75,3.75,0,0,0,.31,1.62,3.46,3.46,0,0,0,.81,1.1,4.12,4.12,0,0,0,1.12.72,11.89,11.89,0,0,0,1.24.47l1.22.41a4.92,4.92,0,0,1,1,.46,2.26,2.26,0,0,1,.68.62,1.53,1.53,0,0,1,.25.9,1.83,1.83,0,0,1-.22.94A2,2,0,0,1,155.5,165.08Z"/><polygon class="a" points="163.7 167.27 166.14 167.27 166.14 155.66 170.36 155.66 170.36 153.52 159.49 153.52 159.49 155.66 163.7 155.66 163.7 167.27"/><path class="a" d="M177.25,162.82a3.5,3.5,0,0,0,1.09.74,3.44,3.44,0,0,0,2.68,0,3.49,3.49,0,0,0,1.83-1.82,3.44,3.44,0,0,0,0-2.68,3.5,3.5,0,0,0-1.83-1.83,3.44,3.44,0,0,0-2.68,0,3.5,3.5,0,0,0-1.83,1.83,3.44,3.44,0,0,0,0,2.68A3.52,3.52,0,0,0,177.25,162.82Z"/><path class="a" d="M193.64,155.79a2,2,0,0,1,1.59-.67,2.24,2.24,0,0,1,1.56.57,2,2,0,0,1,.63,1.54,2.75,2.75,0,0,1-.38,1.45,6.22,6.22,0,0,1-1,1.25l-5.3,5.2v2.14h9.14v-2.14h-6.19l4-3.79a10.87,10.87,0,0,0,.86-.88,6.58,6.58,0,0,0,.7-1,4.87,4.87,0,0,0,.48-1.08,4.21,4.21,0,0,0,.17-1.23,3.7,3.7,0,0,0-1.4-3,4.36,4.36,0,0,0-1.47-.77,5.86,5.86,0,0,0-1.72-.25,5,5,0,0,0-1.76.3,4.52,4.52,0,0,0-1.41.83,4.42,4.42,0,0,0-1,1.24,4.27,4.27,0,0,0-.49,1.57l2.27.35A3,3,0,0,1,193.64,155.79Z"/><path class="a" d="M203.56,165.68a4.38,4.38,0,0,0,1.53,1.44,4.22,4.22,0,0,0,2.08.5,4.16,4.16,0,0,0,2.07-.5,4.34,4.34,0,0,0,1.51-1.44,7.16,7.16,0,0,0,.93-2.27,14.3,14.3,0,0,0,0-6,7.15,7.15,0,0,0-.93-2.27,4.34,4.34,0,0,0-1.51-1.44,4.16,4.16,0,0,0-2.07-.5,4.22,4.22,0,0,0-2.08.5,4.38,4.38,0,0,0-1.53,1.44,7,7,0,0,0-.94,2.27,14.3,14.3,0,0,0,0,6A7,7,0,0,0,203.56,165.68Zm1.22-6.91a8.67,8.67,0,0,1,.36-1.73,3.81,3.81,0,0,1,.75-1.37,1.62,1.62,0,0,1,1.28-.55,1.6,1.6,0,0,1,1.26.55,3.83,3.83,0,0,1,.75,1.37,8.21,8.21,0,0,1,.35,1.73q.09.91.09,1.63t-.09,1.63a7.84,7.84,0,0,1-.35,1.71,3.84,3.84,0,0,1-.75,1.35,1.6,1.6,0,0,1-1.26.55,1.62,1.62,0,0,1-1.28-.55,3.83,3.83,0,0,1-.75-1.35,8.26,8.26,0,0,1-.36-1.71,13.8,13.8,0,0,1,0-3.26Z"/><polygon class="a" points="218.49 156.36 218.49 167.27 220.82 167.27 220.82 153.52 218.7 153.52 214.41 156.98 215.77 158.59 218.49 156.36"/><path class="a" d="M134.8,204.86h68.37l2.7-5.59H131.56Zm58.92-4.08H200v2.29h-6.23Zm-8.09,0h6.23v2.29h-6.23Zm-8.09,0h6.23v2.29h-6.23Zm-8.09,0h6.23v2.29h-6.23Zm-8.09,0h6.23v2.29h-6.23Zm-8.09,0h6.23v2.29h-6.23Zm-8.09,0h6.23v2.29h-6.23Zm-8.09,0h6.23v2.29h-6.23Zm-2,.49v.08l0-.08Z"/><rect class="a" x="181.6" y="305.81" width="14.69" height="3.95"/><rect class="a" x="144.38" y="300.5" width="6.59" height="3.81"/><rect class="a" x="140.33" y="305.81" width="14.69" height="3.95"/><rect class="a" x="152.47" y="300.5" width="15.49" height="3.81"/><rect class="a" x="156.51" y="305.81" width="6.59" height="3.95"/><rect class="a" x="164.61" y="305.81" width="15.49" height="3.95"/><rect class="a" x="134.76" y="300.5" width="8.12" height="3.81"/><rect class="a" x="177.56" y="300.5" width="6.59" height="3.81"/><rect class="a" x="169.46" y="300.5" width="6.59" height="3.81"/><rect class="a" x="185.65" y="300.5" width="6.59" height="3.81"/><rect class="a" x="193.74" y="300.5" width="10.54" height="3.81"/><rect class="a" x="133.85" y="284.96" width="6.5" height="3.21"/><path class="a" d="M157.35,229l3.37,3.37a12.72,12.72,0,0,1,2.6-1.8l-1.64-4A18.34,18.34,0,0,0,157.35,229Z"/><path class="a" d="M181.56,257.61c.94.78,1.94,1.58,3,2.37h1.85v-2.55h-4.82Z"/><path class="a" d="M170.17,225.22v4a11.62,11.62,0,0,1,3.15.77l1.62-3.92A20.19,20.19,0,0,0,170.17,225.22Zm2,2.3v-.06h0Z"/><rect class="a" x="133.85" y="280.02" width="10.54" height="3.45"/><path class="a" d="M164.68,229.93a12.16,12.16,0,0,1,4-.78v-4a20.05,20.05,0,0,0-5.57.9Z"/><rect class="a" x="181.56" y="280.02" width="11.39" height="3.45"/><rect class="a" x="133.85" y="270.48" width="22.63" height="2.11"/><path class="a" d="M197.78,184.7v7.21h5.59V184.7Zm3.59,5.21h-1.59V186.7h1.59Z"/><rect class="a" x="198.5" y="284.96" width="5.69" height="3.21"/><rect class="a" x="118.7" y="194.41" width="88.72" height="2.36"/><rect class="a" x="151.66" y="257.44" width="4.83" height="2.55"/><path class="a" d="M133.85,184.7v7.21h6.4V184.7Zm4.4,5.21h-2.4V186.7h2.4Z"/><path class="a" d="M123.85,184.7v7.21h7.4V184.7Zm5.4,5.21h-3.4V186.7h3.4Z"/><path class="a" d="M131.11,204.83l-3.1-5.48h-8.76l3.1,5.48Zm-4-3.52.89,1.57h-4.76l-.89-1.57Z"/><path class="a" d="M142.75,184.7v7.21h52.53V184.7Zm50.53,5.21H144.75V186.7h48.53Z"/><rect class="a" x="151.66" y="261.49" width="4.83" height="2.55"/><path class="a" d="M204.19,272.48h0v-2h-3.75C201.59,271.12,202.83,271.78,204.19,272.48Z"/><rect class="a" x="181.56" y="275.1" width="7.34" height="3.42"/><path class="a" d="M176.36,226.55l-1.68,4.08a12.58,12.58,0,0,1,2.54,1.86l3.5-3.52A18.43,18.43,0,0,0,176.36,226.55Z"/><rect class="a" x="190.41" y="284.96" width="6.59" height="3.21"/><rect class="a" x="181.56" y="284.96" width="7.34" height="3.21"/><path class="a" d="M185.51,270.48h-3.95v2.11h7.11C187.6,271.9,186.54,271.2,185.51,270.48Z"/><path class="a" d="M194.45,283.46h9.73v-2.19q-1.29-.62-2.57-1.26h-7.16Z"/><path class="a" d="M192.49,275a1.13,1.13,0,0,1-.49.11h-1.59v3.42h8.3C196.64,277.41,194.55,276.22,192.49,275Z"/><rect class="a" x="149.94" y="284.96" width="6.54" height="3.21"/><rect class="a" x="151.66" y="265.53" width="4.83" height="2.45"/><rect class="a" x="149.94" y="275.1" width="6.54" height="3.42"/><rect class="a" x="145.9" y="280.02" width="10.59" height="3.45"/><rect class="a" x="141.85" y="275.1" width="6.59" height="3.42"/><rect class="a" x="151.66" y="249.35" width="4.83" height="2.55"/><path class="a" d="M202.57,247.49c-.54-.61-1.21-1-2.14-1.92V268h2.14Z"/><rect class="a" x="133.85" y="275.1" width="6.5" height="3.42"/><path class="a" d="M156.49,242.78s0-.1,0-.16l0,0-1-1.32h-3.84v2.55h4.83Z"/><rect class="a" x="151.66" y="245.3" width="4.83" height="2.55"/><path class="a" d="M181.87,229.93l-3.63,3.65a13.79,13.79,0,0,1,1.85,2.84l5.11-2.11A14.19,14.19,0,0,0,181.87,229.93Z"/><rect class="a" x="181.56" y="249.35" width="4.82" height="2.55"/><rect class="a" x="181.56" y="245.3" width="4.82" height="2.55"/><path class="a" d="M181.56,242.78v1h4.82v-2.55h-4.91A13.91,13.91,0,0,1,181.56,242.78Z"/><rect class="a" x="181.56" y="253.39" width="4.82" height="2.55"/><path class="a" d="M180.69,237.8a14.42,14.42,0,0,1,.56,2h5.14v-.48a11.17,11.17,0,0,0-.61-3.58Z"/><rect class="a" x="151.66" y="253.39" width="4.83" height="2.55"/><path class="a" d="M152.13,236.14h0a11.41,11.41,0,0,0-.35,1.57,10.49,10.49,0,0,0-.12,1.56v.48h2.81C153.64,238.54,152.86,237.33,152.13,236.14Z"/><rect class="a" x="141.85" y="284.96" width="6.59" height="3.21"/><path class="a" d="M58.59,288.17h5.59v-8.78H58.59Zm2-6.78h1.59v4.78H60.59Z"/><path class="a" d="M116.64,247.14q-1.11,3.62-2.39,7t-2.71,6.59q-.62,1.39-1.28,2.72-1.3,2.67-2.71,5.12-.7,1.22-1.43,2.38a59.6,59.6,0,0,1-4.58,6.38q-.8,1-1.61,1.85t-1.39,1.44a26.8,26.8,0,0,1-8.33,5.85q-.69.29-1.37.5a14.35,14.35,0,0,1-2.7.59q-.44.05-.89.07v.77h4.32l.1-.06c3.74-1.3,7.52-4,11.23-8,.51-.55,1-1.12,1.5-1.71h0l4.29-5.87q.57-.88,1.12-1.8,1.11-1.84,2.17-3.83t2.06-4.12q1-2.13,1.94-4.4,1.41-3.4,2.67-7.08,1.68-4.91,3.07-10.27.69-2.68,1.31-5.45a.92.92,0,0,1,0-.1v-7.61h0c-.14.83-.3,1.64-.45,2.46A144.36,144.36,0,0,1,116.64,247.14Z"/><rect class="a" x="56.73" y="238.37" width="35.78" height="2.09"/><path class="a" d="M86.11,285.32a14.23,14.23,0,0,0,4.79-1.64v-4.29H86.11Zm2-3.94h.79v1l-.79.32Z"/><rect class="a" x="89.15" y="233.71" width="1.74" height="2.17"/><rect class="a" x="62.99" y="233.71" width="23.66" height="2.17"/><rect class="a" x="58.59" y="233.71" width="1.9" height="2.17"/><polygon class="a" points="92.03 242.97 57.31 242.97 58.2 245.37 91.24 245.37 92.03 242.97"/><path class="a" d="M62.21,249.2l.14,0a1.27,1.27,0,0,1,.2,0h.21a1.25,1.25,0,0,1,.39.13l.06,0a1.23,1.23,0,0,1,.34.3h0a3.42,3.42,0,0,1,.64,1.67c.15,1.7.25,2.5.47,4.09.2,1.42.44,2.84.73,4.23h0C67.25,256.78,71,255,75.14,255c6,0,11,3.84,11,8.56v13.35h4.78v-6.24a145.69,145.69,0,0,1-5.05-14,37.1,37.1,0,0,1-1.12-4.31,1.26,1.26,0,0,0-.21-.57,1.28,1.28,0,0,1-.41-1.68,1.31,1.31,0,0,1,.28-.33l.09-.07a1.22,1.22,0,0,1,.31-.16l.06,0a1.18,1.18,0,0,1,.33-.05h.14a1.18,1.18,0,0,1,.4.12h0a3.05,3.05,0,0,1,1.45,2.23,34.68,34.68,0,0,0,1.05,4.06c.78,2.44,1.69,5.23,2.67,8h0v-16H58.59v29h5.59V265.25a68.41,68.41,0,0,1-2-9.5c-.23-1.61-.32-2.48-.48-4.21a1,1,0,0,0-.15-.39,1.25,1.25,0,0,1,.25-1.75A1.23,1.23,0,0,1,62.21,249.2Zm25.9,20q.38,1,.78,1.88v3.82h-.78ZM82,249.87a3.32,3.32,0,0,0,.75,3.08c.2.93.36,1.65.57,2.43a15.31,15.31,0,0,0-16.68.13l-.05-.38c-.22-1.56-.31-2.34-.46-4a5.42,5.42,0,0,0-.28-1.27ZM62.19,265.54v9.35H60.59V258.53A69.27,69.27,0,0,0,62.19,265.54Z"/><path class="a" d="M210.7,277.47a.49.49,0,0,0,.48-.4.49.49,0,0,0,0-.1V254.08a.5.5,0,0,0-.5-.5.48.48,0,0,0-.29.1.51.51,0,0,0-.18.25.49.49,0,0,0,0,.15V277A.5.5,0,0,0,210.7,277.47Z"/><path class="a" d="M222.83,281.92a.49.49,0,0,0,.42-.25.49.49,0,0,0,.08-.25v-17a.5.5,0,0,0-.5-.5.49.49,0,0,0-.25.08.52.52,0,0,0-.18.18.47.47,0,0,0-.07.25v17A.5.5,0,0,0,222.83,281.92Z"/><path class="a" d="M237.4,285.92a.49.49,0,0,0,.44-.28.52.52,0,0,0,0-.18s0,0,0,0V274.09a.5.5,0,0,0-.5-.5.47.47,0,0,0-.25.07.53.53,0,0,0-.18.18.49.49,0,0,0-.08.25v11.33A.5.5,0,0,0,237.4,285.92Z"/><rect class="a" x="53.74" y="233.71" width="2.36" height="2.17"/><rect class="a" x="51.4" y="238.37" width="2.82" height="2.09"/><rect class="a" x="53.74" y="247.87" width="2.36" height="29.02"/><polygon class="a" points="54.64 242.97 52.13 242.97 53.27 245.37 55.54 245.37 54.64 242.97"/><path class="a" d="M123.33,268H133V207.36h-9.64Zm2-58.62H131V266h-5.64Z"/><path class="a" d="M79.81,284.22a11.29,11.29,0,0,0,3.8,1.14v-6h-3.8Z"/><path class="a" d="M75.14,257.47a10.89,10.89,0,0,0-4.16.82l.61,0c4.68,0,8.21,2.89,8.21,6.71v11.9h3.8V263.53C83.61,260.19,79.81,257.47,75.14,257.47Z"/><path class="a" d="M66.79,265.48h0a.75.75,0,0,0-.14-.23l-.06-.06-.15-.11-.08,0-.18,0h-.11a.75.75,0,0,0-.71,1c4.52,13.12,11,19.78,12.92,21.51a.75.75,0,0,0,1-1.11C77.48,284.71,71.19,278.27,66.79,265.48Z"/><path class="a" d="M121.71,288.17h9.64V270.46h-9.64Zm2-15.71h5.64v13.71h-5.64Z"/><polygon class="a" points="135.47 267.98 149.76 267.98 149.76 265.98 137.47 265.98 137.47 209.36 200.57 209.36 200.57 230.44 202.57 233.44 202.57 207.36 135.47 207.36 135.47 267.98"/><path class="a" d="M232.46,155.64h-6.91v-2.12h9.66v1.83L229,167.27h-2.71Z"/></svg>