<?xml version="1.0" encoding="utf-8"?>
<!-- Generator: Adobe Illustrator 20.0.0, SVG Export Plug-In . SVG Version: 6.00 Build 0)  -->
<svg version="1.1" id="Layer_1" xmlns="http://www.w3.org/2000/svg" xmlns:xlink="http://www.w3.org/1999/xlink" x="0px" y="0px"
	 viewBox="0 0 121.1 45" style="enable-background:new 0 0 121.1 45;" xml:space="preserve">
<style type="text/css">
	.st0{enable-background:new    ;}
	.st1{fill:#FFFFFF;}
</style>
<title>logo-w-tru</title>
<g id="Layer_3">
	<g class="st0">
		<path class="st1" d="M63.3,40.2c0,0.7-0.2,1.2-0.5,1.6c-0.3,0.4-0.7,0.6-1.3,0.6c-0.6,0-1-0.2-1.3-0.6l0,0.5h-0.7V36h0.8v2.4
			c0.3-0.4,0.7-0.6,1.3-0.6s1,0.2,1.3,0.6C63.1,38.9,63.3,39.4,63.3,40.2L63.3,40.2z M62.5,40.1c0-0.5-0.1-0.9-0.3-1.2
			s-0.5-0.4-0.9-0.4c-0.5,0-0.9,0.2-1.1,0.7v1.9c0.2,0.5,0.6,0.7,1.1,0.7c0.4,0,0.6-0.1,0.9-0.4C62.4,41.1,62.5,40.7,62.5,40.1z"/>
	</g>
	<g class="st0">
		<path class="st1" d="M65.7,41.2l1-3.3h0.8L65.7,43c-0.3,0.7-0.7,1.1-1.3,1.1l-0.1,0L64,44.1v-0.6l0.2,0c0.3,0,0.5-0.1,0.6-0.2
			c0.1-0.1,0.3-0.3,0.4-0.6l0.2-0.5l-1.6-4.4h0.8L65.7,41.2z"/>
	</g>
	<g class="st0">
		<path class="st1" d="M73.1,39.5h-1.6v2.8h-0.9v-7h2.3c0.8,0,1.4,0.2,1.8,0.5s0.6,0.9,0.6,1.6c0,0.4-0.1,0.8-0.4,1.1
			c-0.2,0.3-0.6,0.6-1,0.7l1.6,3v0.1h-1L73.1,39.5z M71.5,38.8h1.4c0.5,0,0.8-0.1,1.1-0.4c0.3-0.2,0.4-0.6,0.4-1
			c0-0.4-0.1-0.8-0.4-1c-0.3-0.2-0.6-0.3-1.1-0.4h-1.4V38.8z"/>
		<path class="st1" d="M76.5,35.8c0-0.1,0-0.3,0.1-0.4c0.1-0.1,0.2-0.1,0.4-0.1s0.3,0,0.4,0.1c0.1,0.1,0.1,0.2,0.1,0.4
			c0,0.1,0,0.3-0.1,0.4c-0.1,0.1-0.2,0.1-0.4,0.1s-0.3,0-0.4-0.1C76.5,36.1,76.5,35.9,76.5,35.8z M77.4,42.4h-0.9v-5.2h0.9V42.4z"/>
		<path class="st1" d="M81.9,41c0-0.2-0.1-0.4-0.3-0.6c-0.2-0.1-0.5-0.2-0.9-0.3s-0.8-0.2-1.1-0.3c-0.3-0.1-0.5-0.3-0.6-0.5
			c-0.1-0.2-0.2-0.4-0.2-0.7c0-0.4,0.2-0.8,0.5-1.1c0.4-0.3,0.8-0.4,1.4-0.4c0.6,0,1.1,0.2,1.4,0.5s0.5,0.7,0.5,1.2h-0.9
			c0-0.2-0.1-0.5-0.3-0.6s-0.5-0.3-0.8-0.3c-0.3,0-0.6,0.1-0.8,0.2c-0.2,0.1-0.3,0.3-0.3,0.6c0,0.2,0.1,0.4,0.3,0.5
			c0.2,0.1,0.5,0.2,0.9,0.3c0.4,0.1,0.8,0.2,1.1,0.4c0.3,0.1,0.5,0.3,0.6,0.5c0.1,0.2,0.2,0.4,0.2,0.7c0,0.5-0.2,0.8-0.6,1.1
			c-0.4,0.3-0.9,0.4-1.4,0.4c-0.4,0-0.8-0.1-1.1-0.2c-0.3-0.1-0.6-0.4-0.8-0.6s-0.3-0.5-0.3-0.9h0.9c0,0.3,0.1,0.5,0.4,0.7
			c0.2,0.2,0.5,0.3,0.9,0.3c0.3,0,0.6-0.1,0.8-0.2S81.9,41.2,81.9,41z"/>
		<path class="st1" d="M83.9,35.8c0-0.1,0-0.3,0.1-0.4c0.1-0.1,0.2-0.1,0.4-0.1s0.3,0,0.4,0.1c0.1,0.1,0.1,0.2,0.1,0.4
			c0,0.1,0,0.3-0.1,0.4c-0.1,0.1-0.2,0.1-0.4,0.1s-0.3,0-0.4-0.1C84,36.1,83.9,35.9,83.9,35.8z M84.9,42.4H84v-5.2h0.9V42.4z"/>
		<path class="st1" d="M87.1,37.2l0,0.7c0.4-0.5,0.9-0.7,1.6-0.7c1.1,0,1.6,0.6,1.7,1.9v3.4h-0.9v-3.4c0-0.4-0.1-0.7-0.3-0.8
			s-0.4-0.3-0.8-0.3c-0.3,0-0.5,0.1-0.8,0.2c-0.2,0.2-0.4,0.4-0.5,0.6v3.7h-0.9v-5.2H87.1z"/>
		<path class="st1" d="M91.5,39.7c0-0.8,0.2-1.5,0.6-1.9c0.4-0.5,0.9-0.7,1.5-0.7c0.6,0,1.1,0.2,1.5,0.7l0-0.6h0.8v5.1
			c0,0.7-0.2,1.2-0.6,1.6c-0.4,0.4-0.9,0.6-1.6,0.6c-0.4,0-0.7-0.1-1.1-0.2c-0.4-0.2-0.6-0.4-0.8-0.7l0.5-0.5
			c0.4,0.5,0.8,0.7,1.4,0.7c0.4,0,0.8-0.1,1-0.4s0.4-0.6,0.4-1v-0.4c-0.4,0.4-0.8,0.6-1.5,0.6c-0.6,0-1.1-0.2-1.5-0.7
			S91.5,40.6,91.5,39.7z M92.4,39.8c0,0.6,0.1,1,0.4,1.4c0.2,0.3,0.6,0.5,1,0.5c0.6,0,1-0.3,1.2-0.8v-2.4c-0.3-0.5-0.7-0.7-1.2-0.7
			c-0.4,0-0.8,0.2-1,0.5C92.5,38.7,92.4,39.2,92.4,39.8z"/>
		<path class="st1" d="M99.4,39.2c-0.8-0.2-1.4-0.5-1.7-0.8c-0.4-0.3-0.5-0.7-0.5-1.2c0-0.5,0.2-1,0.7-1.4s1-0.5,1.7-0.5
			c0.5,0,0.9,0.1,1.3,0.3c0.4,0.2,0.7,0.4,0.9,0.8c0.2,0.3,0.3,0.7,0.3,1.1h-0.9c0-0.4-0.1-0.8-0.4-1S100,36,99.5,36
			c-0.5,0-0.8,0.1-1.1,0.3s-0.4,0.5-0.4,0.8c0,0.3,0.1,0.5,0.4,0.7s0.7,0.4,1.2,0.5s1,0.3,1.4,0.5c0.3,0.2,0.6,0.4,0.7,0.7
			c0.2,0.3,0.2,0.6,0.2,0.9c0,0.6-0.2,1-0.7,1.4c-0.4,0.3-1,0.5-1.8,0.5c-0.5,0-0.9-0.1-1.3-0.3c-0.4-0.2-0.7-0.4-1-0.8
			c-0.2-0.3-0.3-0.7-0.3-1.1h0.9c0,0.4,0.2,0.8,0.5,1c0.3,0.2,0.7,0.4,1.2,0.4c0.5,0,0.9-0.1,1.1-0.3c0.3-0.2,0.4-0.5,0.4-0.8
			s-0.1-0.6-0.4-0.8C100.5,39.6,100.1,39.4,99.4,39.2z"/>
		<path class="st1" d="M104.3,35.9v1.3h1v0.7h-1v3.2c0,0.2,0,0.4,0.1,0.5c0.1,0.1,0.2,0.2,0.4,0.2c0.1,0,0.2,0,0.4-0.1v0.7
			c-0.2,0.1-0.5,0.1-0.7,0.1c-0.4,0-0.7-0.1-0.9-0.4c-0.2-0.2-0.3-0.6-0.3-1v-3.2h-0.9v-0.7h0.9v-1.3H104.3z"/>
		<path class="st1" d="M109.5,42.4c-0.1-0.1-0.1-0.3-0.1-0.5c-0.4,0.4-0.9,0.6-1.5,0.6c-0.5,0-0.9-0.1-1.3-0.4
			c-0.3-0.3-0.5-0.7-0.5-1.1c0-0.5,0.2-1,0.6-1.3c0.4-0.3,1-0.4,1.7-0.4h0.9v-0.4c0-0.3-0.1-0.6-0.3-0.7s-0.5-0.3-0.8-0.3
			c-0.3,0-0.6,0.1-0.8,0.2c-0.2,0.2-0.3,0.4-0.3,0.6h-0.9c0-0.3,0.1-0.5,0.3-0.8s0.4-0.4,0.7-0.6c0.3-0.1,0.7-0.2,1-0.2
			c0.6,0,1.1,0.1,1.4,0.4s0.5,0.7,0.5,1.2v2.4c0,0.5,0.1,0.9,0.2,1.1v0.1H109.5z M108,41.7c0.3,0,0.5-0.1,0.8-0.2
			c0.2-0.1,0.4-0.3,0.5-0.6v-1.1h-0.7c-1.1,0-1.6,0.3-1.6,1c0,0.3,0.1,0.5,0.3,0.7C107.5,41.6,107.7,41.7,108,41.7z"/>
		<path class="st1" d="M113.7,41.7c0.3,0,0.6-0.1,0.8-0.3c0.2-0.2,0.4-0.4,0.4-0.7h0.8c0,0.3-0.1,0.6-0.3,0.8
			c-0.2,0.3-0.4,0.5-0.8,0.6c-0.3,0.2-0.6,0.2-1,0.2c-0.7,0-1.3-0.2-1.7-0.7s-0.6-1.1-0.6-1.9v-0.1c0-0.5,0.1-1,0.3-1.3
			c0.2-0.4,0.5-0.7,0.8-0.9s0.8-0.3,1.2-0.3c0.6,0,1.1,0.2,1.5,0.5c0.4,0.3,0.6,0.8,0.6,1.4h-0.8c0-0.3-0.2-0.6-0.4-0.8
			s-0.5-0.3-0.8-0.3c-0.5,0-0.8,0.2-1,0.5c-0.2,0.3-0.4,0.8-0.4,1.4v0.2c0,0.6,0.1,1.1,0.4,1.4S113.2,41.7,113.7,41.7z"/>
		<path class="st1" d="M118.2,40l-0.6,0.6v1.8h-0.9V35h0.9v4.5l0.5-0.6l1.6-1.7h1.1l-2,2.2l2.3,3h-1L118.2,40z"/>
	</g>
</g>
<g id="Layer_1_1_">
	<path class="st1" d="M58.3,13.1h-2.8c-0.2,0-0.4-0.1-0.4-0.3c0,0,0,0,0-0.1v-2.6c0.1-0.5-0.3-1-0.9-1.1c-0.1,0-0.1,0-0.2,0h-1.1
		c-0.5-0.1-1,0.3-1.1,0.9c0,0.1,0,0.1,0,0.2v2.6c0,0.2-0.1,0.4-0.3,0.4c0,0,0,0-0.1,0h-1.1c-0.5-0.1-1,0.3-1.1,0.9
		c0,0.1,0,0.1,0,0.2v0.9c0,0.3,0.1,0.6,0.3,0.8c0.2,0.2,0.5,0.3,0.8,0.3h1.1c0.2,0,0.4,0.1,0.4,0.3c0,0,0,0,0,0.1v7.5
		c-0.1,1.5,0.4,3,1.3,4.2c1.1,1.1,2.6,1.6,4.2,1.5h1.1c0.5,0.1,1-0.3,1.1-0.9c0-0.1,0-0.1,0-0.2v-0.9c0-0.3-0.1-0.6-0.3-0.8
		c-0.2-0.2-0.5-0.3-0.8-0.3h-0.8c-1,0-1.6-0.2-1.9-0.7c-0.4-0.6-0.5-1.4-0.5-2.1v-7.2c0-0.2,0.1-0.4,0.3-0.4c0,0,0,0,0.1,0h2.8
		c0.5,0.1,1-0.3,1.1-0.9c0-0.1,0-0.1,0-0.2v-0.9c0-0.3-0.1-0.6-0.3-0.8C59,13.2,58.6,13.1,58.3,13.1 M88,13.1h-5.6
		c-1,0-2,0.2-2.9,0.6c-0.8,0.4-1.6,0.9-2.3,1.5c-0.6,0.7-1.2,1.4-1.5,2.3c-0.4,0.9-0.5,1.8-0.5,2.8v3.3c0,0.9,0.2,1.8,0.5,2.7
		c0.2,0.8,0.6,1.5,1.2,2.1c0.5,0.6,1.2,1.1,1.9,1.4c0.8,0.3,1.6,0.5,2.4,0.5c0.9,0,1.7-0.1,2.5-0.4c0.6-0.3,1.2-0.7,1.6-1.2
		c0.1-0.1,0.2-0.1,0.3-0.1c0.1,0.1,0.2,0.1,0.2,0.3c0,0.3,0.1,0.5,0.3,0.7c0.2,0.2,0.5,0.4,0.8,0.4H88c0.5,0.1,1-0.3,1.1-0.9
		c0-0.1,0-0.1,0-0.2V14.2c0-0.3-0.1-0.6-0.3-0.8C88.6,13.2,88.3,13.1,88,13.1 M85.7,23c0,0.5-0.1,1-0.2,1.5
		c-0.2,0.5-0.4,0.9-0.7,1.3c-0.3,0.4-0.7,0.7-1.2,1c-0.5,0.3-1.1,0.4-1.7,0.4c-0.9,0.1-1.7-0.3-2.3-0.9c-0.6-0.6-0.9-1.4-0.9-2.3
		v-3.7c0-1,0.4-2,1-2.8c0.8-0.8,1.8-1.2,2.9-1.2h2.8c0.2,0,0.4,0.1,0.4,0.3c0,0,0,0,0,0.1L85.7,23L85.7,23z M104.4,25.9
		c-0.5-0.4-1.1-0.4-1.6,0c-0.2,0.2-0.7,0.5-1.1,0.8c-0.5,0.2-1.1,0.4-1.7,0.4c-0.5,0-1.1-0.1-1.6-0.3c-0.4-0.1-0.7-0.4-1-0.7
		c-0.3-0.4-0.5-0.8-0.6-1.2c-0.1-0.5-0.2-0.9-0.2-1.4v-4.1c-0.1-0.9,0.2-1.8,0.8-2.5c0.6-0.8,1.6-1.2,2.6-1.1c0.5,0,1,0.1,1.4,0.3
		c0.4,0.1,0.8,0.4,1.1,0.7c0.6,0.5,1.1,0.5,1.5,0.1l0.7-0.7c0.2-0.2,0.4-0.5,0.4-0.8c0-0.3-0.1-0.6-0.4-0.8c-0.6-0.6-1.3-1-2-1.3
		c-1.8-0.8-3.8-0.8-5.6,0c-0.8,0.4-1.5,0.9-2.1,1.5c-0.6,0.6-1.1,1.3-1.4,2.1c-0.3,0.8-0.5,1.7-0.5,2.6v4.1c0,0.9,0.2,1.8,0.4,2.6
		c0.3,0.8,0.7,1.5,1.3,2.1c0.6,0.6,1.3,1.1,2.1,1.5c0.9,0.4,1.9,0.6,2.9,0.6c1.1,0,2.1-0.2,3.1-0.7c0.8-0.4,1.4-0.9,2-1.5
		c0.2-0.2,0.3-0.5,0.4-0.8c0-0.3-0.1-0.5-0.3-0.7L104.4,25.9z M71.4,13.1H70c-1.6-0.1-3.2,0.5-4.4,1.7c-1.1,1.3-1.6,2.9-1.6,4.5v9.5
		c0,0.3,0.1,0.6,0.3,0.8c0.2,0.2,0.5,0.3,0.8,0.3h1.1c0.5,0.1,1-0.3,1.1-0.9c0-0.1,0-0.1,0-0.2v-9.3c-0.1-0.8,0.2-1.6,0.7-2.3
		c0.5-0.6,1.3-0.9,2.1-0.9h1.1c0.5,0.1,1-0.3,1.1-0.9c0-0.1,0-0.1,0-0.2v-0.9c0-0.3-0.1-0.6-0.3-0.8C72,13.2,71.8,13.1,71.4,13.1
		 M119.2,14.7c-0.6-0.6-1.3-1.1-2.1-1.4c-0.9-0.4-1.8-0.5-2.8-0.5c-1-0.1-1.9,0.1-2.8,0.5c-0.8,0.3-1.5,0.8-2.1,1.4
		c-0.6,0.6-1,1.3-1.3,2.1c-0.3,0.8-0.4,1.7-0.4,2.6v4.4c0,0.9,0.2,1.7,0.5,2.5c0.7,1.6,1.9,2.8,3.5,3.5c0.9,0.4,1.9,0.5,2.9,0.5
		c1.2,0.1,2.4-0.2,3.5-0.8c0.8-0.4,1.6-1,2.2-1.7c0.2-0.2,0.3-0.5,0.3-0.8c0-0.3-0.1-0.5-0.3-0.7l-0.7-0.7c-0.2-0.2-0.5-0.4-0.8-0.4
		c-0.3,0-0.6,0.1-0.8,0.4c-0.4,0.4-0.8,0.7-1.2,1c-0.7,0.4-1.4,0.6-2.2,0.5c-1,0.1-2-0.3-2.6-1c-0.5-0.7-0.9-1.5-0.9-2.4V23
		c0-0.2,0.1-0.4,0.3-0.4c0,0,0,0,0.1,0h8.5c0.5,0.1,1-0.3,1.1-0.9c0-0.1,0-0.1,0-0.2v-2.2c0-0.9-0.2-1.8-0.5-2.6
		C120.2,16,119.8,15.3,119.2,14.7 M117.6,19.5c0,0.2-0.1,0.4-0.3,0.4c0,0,0,0-0.1,0h-5.9c-0.2,0-0.4-0.1-0.4-0.3c0,0,0,0,0-0.1v-0.2
		c-0.1-0.9,0.2-1.7,0.7-2.4c0.6-0.7,1.6-1.1,2.5-1c1-0.1,1.9,0.3,2.6,1c0.5,0.7,0.8,1.5,0.8,2.4L117.6,19.5z"/>
	<path class="st1" d="M22.4,7.6c-0.8,0-1.4,0.6-1.4,1.3c0,0,0,0,0,0.1c0,0.7,0.6,1.4,1.3,1.4c0,0,0,0,0,0c0.8,0,1.4-0.6,1.5-1.4
		C23.8,8.2,23.2,7.6,22.4,7.6C22.4,7.6,22.4,7.6,22.4,7.6z"/>
	<path class="st1" d="M17.7,24.5c0.8,0,1.4-0.6,1.4-1.4s-0.6-1.4-1.4-1.4c-0.8,0-1.4,0.6-1.4,1.4l0,0C16.3,23.9,16.9,24.5,17.7,24.5
		C17.7,24.5,17.7,24.5,17.7,24.5z"/>
	<path class="st1" d="M7.4,22C6.6,22,6,22.6,6,23.4s0.6,1.4,1.4,1.4c0.8,0,1.4-0.6,1.4-1.4l0,0C8.8,22.6,8.2,22,7.4,22
		C7.4,22,7.4,22,7.4,22z"/>
	<path class="st1" d="M12.6,17c-0.8,0-1.4,0.6-1.4,1.4c0,0.8,0.6,1.4,1.4,1.4c0.8,0,1.4-0.6,1.4-1.4C14,17.6,13.4,17,12.6,17
		C12.6,17,12.6,17,12.6,17z"/>
	<path class="st1" d="M17.1,31.4c-0.8,0-1.4,0.6-1.4,1.4c0,0.8,0.6,1.4,1.4,1.4c0.8,0,1.4-0.6,1.4-1.4C18.5,32,17.9,31.4,17.1,31.4
		C17.1,31.4,17.1,31.4,17.1,31.4z"/>
	<path class="st1" d="M22,0C9.8,0,0,9.8,0,22s9.8,22,22,22s22-9.8,22-22C44,9.9,34.2,0,22.1,0C22.1,0,22,0,22,0z M37.3,26.1
		c-1.5,0-2.8-1.3-2.8-2.8c0-0.5,0.2-1,0.4-1.4l-1.4-1.4c-0.4,0.3-1,0.5-1.5,0.5c-0.5,0-1.1-0.1-1.5-0.4l-1,1
		c0.3,0.4,0.4,0.9,0.4,1.4c0,0.5-0.2,1-0.4,1.4l1.2,1.1c0.4-0.3,1-0.5,1.5-0.5c1.6,0,2.9,1.2,2.9,2.8c0,1.5-1.3,2.8-2.8,2.8
		c-1.5,0-2.8-1.3-2.8-2.8c0-0.4,0.1-0.8,0.3-1.2l-1.2-1.1c-0.5,0.2-1,0.4-1.5,0.4c-0.5,0-1-0.1-1.4-0.4l-6.3,6.1
		c0.3,0.4,0.4,0.9,0.4,1.4c0,1.5-1.3,2.8-2.8,2.8s-2.8-1.3-2.8-2.8c0-1.5,1.3-2.8,2.8-2.8c0.5,0,1.1,0.1,1.5,0.4l6.2-6
		c-0.2-0.4-0.4-0.9-0.4-1.4c0-1.5,1.3-2.8,2.8-2.8c0.5,0,1.1,0.1,1.5,0.4l1-1c-0.3-0.4-0.4-0.9-0.4-1.4c0-0.5,0.1-1,0.4-1.4
		l-5.8-5.6c-0.5,0.2-1,0.4-1.5,0.4c-0.5,0-1.1-0.1-1.5-0.4L14.9,17c0.3,0.4,0.4,0.9,0.4,1.4c0,0.5-0.1,0.9-0.3,1.3l1.3,1.1
		c0.4-0.3,1-0.5,1.5-0.5c1.5,0,2.7,1.3,2.7,2.8s-1.3,2.7-2.8,2.7S15,24.5,15,23c0-0.4,0.1-0.8,0.3-1.2l-1.2-1
		c-0.5,0.3-1,0.5-1.6,0.5c-0.5,0-1.1-0.1-1.5-0.4l-1.3,1.3c0.3,0.4,0.4,0.9,0.4,1.4c0,1.5-1.3,2.8-2.8,2.8s-2.8-1.3-2.8-2.8
		c0-1.5,1.3-2.8,2.8-2.8l0,0c0.5,0,1.1,0.1,1.5,0.4l1.3-1.3c-0.3-0.4-0.4-0.9-0.4-1.4c0-1.5,1.3-2.8,2.8-2.8c0.5,0,1.1,0.1,1.5,0.4
		l5.9-5.8c-0.3-0.4-0.4-0.9-0.4-1.4c0-1.5,1.3-2.8,2.8-2.8c1.5,0,2.8,1.3,2.8,2.8c0,0.5-0.2,1-0.4,1.4l5.8,5.7
		c0.4-0.2,0.9-0.4,1.4-0.4c1.5,0,2.8,1.3,2.8,2.8c0,0.5-0.2,0.9-0.4,1.3l1.4,1.4c0.5-0.2,1-0.4,1.5-0.4c1.5,0,2.8,1.1,2.9,2.6
		C40.1,24.8,38.8,26.1,37.3,26.1L37.3,26.1z"/>
	<path class="st1" d="M32,17c-0.8,0-1.4,0.6-1.4,1.4c0,0.8,0.6,1.4,1.4,1.4c0.8,0,1.4-0.6,1.4-1.4C33.4,17.6,32.8,17,32,17
		C32,17,32,17,32,17z"/>
	<path class="st1" d="M27.1,21.6c-0.8,0-1.4,0.6-1.4,1.4s0.6,1.4,1.4,1.4s1.4-0.6,1.4-1.4l0,0C28.5,22.2,27.9,21.6,27.1,21.6
		C27.1,21.6,27.1,21.6,27.1,21.6z"/>
	<path class="st1" d="M37.2,22c-0.8,0-1.4,0.6-1.4,1.4s0.6,1.4,1.4,1.4c0.8,0,1.4-0.6,1.4-1.4C38.6,22.6,38,22,37.2,22
		C37.2,22,37.2,22,37.2,22z"/>
	<path class="st1" d="M32.2,29.1c0.8,0,1.4-0.6,1.4-1.4s-0.6-1.4-1.4-1.4c-0.8,0-1.4,0.6-1.4,1.4C30.8,28.5,31.4,29.1,32.2,29.1
		C32.2,29.1,32.2,29.1,32.2,29.1z"/>
</g>
</svg>
